<?xml version="1.0" encoding="utf-8"?>
<!-- Generator: Adobe Illustrator 24.2.0, SVG Export Plug-In . SVG Version: 6.00 Build 0)  -->
<svg version="1.1" id="Capa_2_1_" xmlns="http://www.w3.org/2000/svg" xmlns:xlink="http://www.w3.org/1999/xlink" x="0px" y="0px"
	 viewBox="0 0 359.8 346.5" style="enable-background:new 0 0 359.8 346.5;" xml:space="preserve">
<style type="text/css">
	.st0{fill:#F5F5F5;}
	.st1{fill:#E0E0E0;}
	.st2{fill:#455A64;}
	.st3{fill:#37474F;}
	.st4{fill:#C8667A;}
	.st5{fill:#263238;}
	.st6{opacity:0.8;fill:#FFFFFF;enable-background:new    ;}
	.st7{opacity:0.15;fill:#A02C38;enable-background:new    ;}
	.st8{opacity:0.5;fill:#A02C38;enable-background:new    ;}
	.st9{opacity:0.35;fill:#A02C38;enable-background:new    ;}
	.st10{opacity:0.23;fill:#A02C38;enable-background:new    ;}
	.st11{opacity:0.15;}
	.st12{fill:#A02C38;}
	.st13{opacity:0.4;fill:#A02C38;enable-background:new    ;}
	.st14{opacity:0.6;fill:#FFFFFF;enable-background:new    ;}
	.st15{opacity:0.3;fill:#FFFFFF;enable-background:new    ;}
	.st16{opacity:0.1;fill:#A02C38;enable-background:new    ;}
	.st17{opacity:0.2;fill:#A02C38;enable-background:new    ;}
	.st18{fill:#FFFFFF;}
	.st19{clip-path:url(#SVGID_2_);}
	.st20{fill:#FFA8A7;}
	.st21{opacity:0.45;fill:#A02C38;enable-background:new    ;}
	.st22{fill:#F28F8F;}
	.st23{fill:#FAFAFA;}
	.st24{fill:#B16668;}
</style>
<g id="OBJECTS">
	<ellipse id="Floor" class="st0" cx="179.9" cy="242.7" rx="179.9" ry="103.9"/>
	<path id="Shadow" class="st1" d="M46.5,261.1c0-0.1,0.1-0.1,0.1-0.2c0,0,0.1-0.1,0.1-0.1c0,0,0.1-0.1,0.1-0.1c0,0,0.1-0.1,0.1-0.1
		c0.1-0.1,0.3-0.2,0.5-0.3l168.2-97.1c1.5-0.9,3.9-0.9,5.4,0l87.5,50.4c0.1,0.1,0.2,0.1,0.3,0.2c0,0,0.1,0.1,0.1,0.1
		c0.2,0.2,0.3,0.3,0.5,0.5c0,0,0,0.1,0.1,0.1c0,0.1,0.1,0.1,0.1,0.2c0,0.1,0,0.1,0,0.2c0,0.1,0,0.2,0,0.3c0,0.1,0,0.1,0,0.2
		c0,0.1,0,0.1,0,0.2s0,0.1-0.1,0.2c-0.2,0.3-0.5,0.7-1,0.9l-168.2,97.1c-0.5,0.3-1,0.5-1.6,0.5c-0.4,0.1-0.7,0.1-1.1,0.1
		c-0.4,0-0.7,0-1.1-0.1c-0.1,0-0.2,0-0.4-0.1c-0.3-0.1-0.7-0.2-1-0.3c-0.1,0-0.2-0.1-0.3-0.2l-87.5-50.4
		C46.5,262.6,46.2,261.8,46.5,261.1L46.5,261.1z"/>
	<ellipse id="Shadow-2" class="st1" cx="75.6" cy="208.2" rx="37.4" ry="21.6"/>
	<path id="Shadow-3" class="st1" d="M283.5,337.8c-1.6,0-3.2-0.4-4.4-1.1l-74.9-43.3l-0.1,0c-1.5-0.9-2.3-2.2-2.3-3.7
		c0-1.5,0.9-2.9,2.4-3.8l49.4-28.5c1.2-0.7,2.7-1.1,4.3-1.1s3.2,0.4,4.4,1.1l74.9,43.2c1.5,0.9,2.4,2.3,2.4,3.8
		c0,1.4-0.8,2.7-2.2,3.6c-0.1,0.1-0.2,0.1-0.3,0.2l-37.4,21.6l-12,6.9C286.7,337.4,285.2,337.8,283.5,337.8L283.5,337.8L283.5,337.8
		z"/>
	<g id="Device">
		<g id="Mobile">
			<path class="st2" d="M52.1,252.2l80.2,46.3c0.1,0,0.2,0.1,0.3,0.2c0.3,0.1,0.6,0.3,1,0.3c0.1,0,0.2,0,0.4,0.1
				c0.4,0,0.7,0.1,1.1,0.1s0.7,0,1.1-0.1c0.6-0.1,1.1-0.3,1.6-0.5L301.3,204c0.5-0.3,0.8-0.6,1-0.9c0-0.1,0.1-0.1,0.1-0.2
				c0-0.1,0-0.1,0-0.2c0-0.1,0-0.1,0-0.2c0-0.1,0-0.2,0-0.3c0-0.1,0-0.1,0-0.2c0-0.1,0-0.1-0.1-0.2c0-0.1,0-0.1-0.1-0.1
				c-0.1-0.2-0.3-0.3-0.5-0.5c0,0-0.1-0.1-0.1-0.1c-0.1-0.1-0.2-0.1-0.3-0.2l-80.2-46.3c-1.5-0.9-3.9-0.9-5.4,0L52.1,249
				c-0.2,0.1-0.3,0.2-0.5,0.3c0,0-0.1,0.1-0.1,0.1c0,0.1-0.1,0.1-0.1,0.1c0,0.1-0.1,0.1-0.1,0.1c0,0.1-0.1,0.1-0.1,0.2
				C50.7,250.7,51.1,251.6,52.1,252.2z M68.7,243.9l136.8-79c0.1-0.1,0.2-0.1,0.4-0.2c0.2-0.1,0.5-0.2,0.7-0.2
				c1-0.1,1.9,0.3,2.9,0.8l73.4,42.4c1,0.6,1.2,1.5,0.6,2.2c-0.1,0.2-0.3,0.3-0.6,0.5l-6.3,3.6L146.8,289c-0.2,0.1-0.4,0.2-0.6,0.3
				c-1.1,0.5-2.4,0.5-3.5,0c-0.2-0.1-0.4-0.2-0.6-0.3l-68.3-39.4l-5.1-3C67.7,246,67.7,244.5,68.7,243.9L68.7,243.9z"/>
			<path class="st3" d="M301.6,201.1c1.4,1,2.4,2.9,2.4,4.5v3.6c0,1.7-1.2,3.8-2.7,4.7l-163.6,94.4c-0.6,0.3-1.3,0.5-2,0.6
				c-0.2,0-0.5,0-0.7,0l0,0v-9.9l0,0c0.4,0,0.7,0,1.1-0.1c0.6-0.1,1.1-0.3,1.6-0.5L301.3,204C302.7,203.2,302.8,202,301.6,201.1
				L301.6,201.1z"/>
			<path class="st4" d="M94.5,269.2c2.6-1.5,7.1-1.5,9.7,0c0.7,0.4,1.2,0.9,1.4,1.3c0.9,1.5-0.7,2.6-1.4,3.1c-2.6,1.5-7.1,1.5-9.7,0
				c-0.7-0.4-1.2-0.9-1.4-1.3C92.1,270.8,93.7,269.6,94.5,269.2z"/>
			<g>
				<path class="st5" d="M254.7,182c-0.7-0.4-0.7-1.1,0-1.5s1.9-0.4,2.6,0c0.7,0.4,0.7,1.1,0,1.5S255.4,182.4,254.7,182z"/>
				<g>
					<path class="st5" d="M258.8,189.2c-0.6-0.4-0.6-1,0-1.4s1.7-0.4,2.4,0s0.6,1,0,1.4S259.5,189.6,258.8,189.2z"/>
					<path class="st5" d="M254.8,187l-13.2-7.6c-0.7-0.4-0.8-1.1-0.1-1.5s1.8-0.4,2.5,0.1l13.2,7.6c0.7,0.4,0.8,1.1,0.1,1.5
						C256.7,187.4,255.6,187.4,254.8,187z"/>
				</g>
			</g>
			<path class="st5" d="M51.7,249.3c-1.1,0.9-1,2.1,0.4,2.9l80.2,46.3c0.7,0.4,1.7,0.6,2.7,0.6v9.9c-1,0-2-0.2-2.7-0.7L52.1,262
				c-1.5-0.9-2.7-3-2.7-4.7v-3.6C49.4,252.1,50.4,250.2,51.7,249.3L51.7,249.3z"/>
			<g>
				<g>
					<path class="st2" d="M263.1,228.9c-0.8,0.4-1.4,1.5-1.4,2.3c0,0.4,0.1,0.7,0.4,0.8c0.2,0.1,0.8,0.5,1,0.6
						c0.3,0.1,0.6,0.1,1-0.1l18.2-10.5c0.8-0.4,1.4-1.5,1.4-2.3c0-0.4-0.1-0.7-0.4-0.8c-0.2-0.1-0.8-0.5-1-0.6
						c-0.3-0.1-0.6-0.1-1,0.1L263.1,228.9L263.1,228.9z"/>
					<path class="st5" d="M264,229.4l18.2-10.5c0.8-0.4,1.4-0.1,1.4,0.7s-0.6,1.9-1.4,2.3L264,232.5c-0.8,0.4-1.4,0.1-1.4-0.7
						C262.6,230.9,263.3,229.9,264,229.4z"/>
				</g>
				<g>
					<path class="st2" d="M287.5,214.8c-0.8,0.4-1.4,1.5-1.4,2.3c0,0.4,0.1,0.7,0.4,0.8c0.2,0.1,0.8,0.5,1,0.6
						c0.3,0.1,0.6,0.1,1-0.1l8.6-5c0.8-0.4,1.4-1.5,1.4-2.3c0-0.4-0.1-0.7-0.4-0.8c-0.2-0.1-0.8-0.5-1-0.6c-0.3-0.1-0.6-0.1-1,0.1
						L287.5,214.8L287.5,214.8z"/>
					<path class="st5" d="M288.5,215.3l8.6-5c0.8-0.4,1.4-0.1,1.4,0.7c0,0.8-0.6,1.9-1.4,2.3l-8.6,5c-0.8,0.4-1.4,0.1-1.4-0.7
						S287.7,215.8,288.5,215.3z"/>
				</g>
			</g>
		</g>
		<g id="Window">
			<path class="st4" d="M68.7,246.6l5.1,3l68.3,39.4c0.2,0.1,0.4,0.2,0.6,0.3c1.1,0.5,2.4,0.5,3.5,0c0.2-0.1,0.4-0.2,0.6-0.3
				L276.6,214l6.3-3.6c0.2-0.1,0.4-0.3,0.6-0.5c0.6-0.7,0.5-1.6-0.6-2.2l-73.4-42.4c-0.9-0.5-1.9-0.9-2.9-0.8
				c-0.2,0-0.5,0.1-0.7,0.2c-0.1,0.1-0.2,0.1-0.4,0.2l-136.8,79C67.7,244.5,67.7,246,68.7,246.6L68.7,246.6z"/>
			<path class="st6" d="M68.7,246.6l5.1,3l68.3,39.4c0.2,0.1,0.4,0.2,0.6,0.3c1.1,0.5,2.4,0.5,3.5,0c0.2-0.1,0.4-0.2,0.6-0.3
				L276.6,214l6.3-3.6c0.2-0.1,0.4-0.3,0.6-0.5c0.6-0.7,0.5-1.6-0.6-2.2l-73.4-42.4c-0.9-0.5-1.9-0.9-2.9-0.8
				c-0.2,0-0.5,0.1-0.7,0.2c-0.1,0.1-0.2,0.1-0.4,0.2l-136.8,79C67.7,244.5,67.7,246,68.7,246.6L68.7,246.6z"/>
			<g>
				<g>
					<path class="st2" d="M267.3,204.8l-0.1-0.1c0,0-0.1,0-0.1-0.1s0,0,0.1-0.1l0.4-0.2l-0.2-0.1c0,0,0,0,0-0.1s0,0,0.1-0.1l0.1-0.1
						c0,0,0.1,0,0.1,0s0.1,0,0.1,0l0.2,0.1l1.3-0.7c0,0,0.1,0,0.1,0c0,0,0.1,0,0.1,0l0.1,0.1c0,0,0,0,0,0c0,0,0,0,0,0.1l-0.4,1.3
						c0,0,0,0,0,0.1c0,0,0,0-0.1,0l-0.1,0.1c0,0-0.1,0-0.1,0l-0.9-0.5l-0.4,0.2C267.5,204.8,267.4,204.9,267.3,204.8
						C267.3,204.9,267.3,204.9,267.3,204.8L267.3,204.8z M268.7,204.8l0.3-0.9l-0.9,0.5L268.7,204.8z"/>
					<path class="st2" d="M265.5,203.9c-0.3-0.2-0.5-0.3-0.5-0.5c0,0,0,0,0-0.1c0,0,0,0,0.1-0.1l0.8-0.5c0,0,0.1,0,0.1,0
						s0.1,0,0.1,0l0.6,0.3c0,0,0,0,0,0.1s0,0-0.1,0.1l-0.1,0.1c0,0-0.1,0-0.1,0s-0.1,0-0.1,0l-0.4-0.2l-0.6,0.3c0,0,0.1,0.1,0.1,0.1
						c0.1,0.1,0.1,0.1,0.2,0.1c0.2,0.1,0.4,0.2,0.7,0.2s0.5-0.1,0.8-0.3c0.3-0.2,0.4-0.3,0.4-0.5c0-0.1-0.1-0.3-0.3-0.4
						c-0.2-0.1-0.4-0.2-0.6-0.2c0,0,0,0,0,0c0,0,0,0,0,0l0.1-0.1c0,0,0,0,0,0c0,0,0,0,0.1,0c0.1,0,0.3,0,0.4,0.1
						c0.1,0,0.3,0.1,0.4,0.2c0.3,0.2,0.5,0.4,0.4,0.6c0,0.2-0.2,0.4-0.6,0.6c-0.4,0.2-0.7,0.3-1.1,0.3
						C266.2,204.2,265.9,204.1,265.5,203.9L265.5,203.9z"/>
				</g>
				<g>
					<path class="st2" d="M259.4,199.9c-0.3,0.2-0.3,0.4,0,0.6s0.7,0.2,1,0s0.3-0.4,0-0.6S259.6,199.7,259.4,199.9z"/>
					<path class="st2" d="M259.3,199.1c-0.1,0-0.2,0.1-0.2,0.2l0,0c0,0.1,0.2,0.2,0.4,0.1c0.5-0.1,1,0,1.3,0.2
						c0.4,0.2,0.5,0.5,0.3,0.8c0,0.1,0.1,0.2,0.2,0.2l0,0c0.1,0,0.3,0,0.3-0.1c0.2-0.4,0-0.8-0.5-1.1
						C260.7,199.1,259.9,199,259.3,199.1L259.3,199.1z"/>
					<path class="st2" d="M259.2,198.4c-0.1,0-0.2,0.1-0.2,0.2l0,0c0,0.1,0.2,0.2,0.3,0.1c0.8-0.1,1.7,0,2.3,0.4s0.8,0.9,0.7,1.3
						c0,0.1,0.1,0.2,0.2,0.2l0,0c0.1,0,0.3-0.1,0.3-0.1c0.2-0.6-0.1-1.2-0.8-1.6C261.3,198.5,260.2,198.3,259.2,198.4L259.2,198.4z"
						/>
				</g>
				<g>
					<path class="st2" d="M246.8,191.7c0,0-0.1,0-0.1,0c0,0,0,0-0.1-0.1l-0.1-0.5l-1.6,0.9c0,0-0.1,0-0.1,0c0,0-0.1,0-0.1,0
						l-0.3-0.2c0,0,0,0,0-0.1s0,0,0-0.1l2.1-1.2c0,0,0.1,0,0.1,0s0.1,0,0.1,0l0.3,0.1c0,0,0,0,0,0.1s0,0,0,0.1l0.1,0.8
						c0,0,0,0,0,0.1c0,0-0.1,0-0.1,0L246.8,191.7L246.8,191.7z"/>
					<path class="st2" d="M245.1,190.8c0,0-0.1,0-0.1,0c0,0,0,0-0.1-0.1l-0.1-0.5l-1.6,0.9c0,0-0.1,0-0.1,0s-0.1,0-0.1,0l-0.3-0.2
						c0,0,0,0,0-0.1s0,0,0-0.1l2.1-1.2c0,0,0.1,0,0.1,0s0.1,0,0.1,0l0.3,0.1c0,0,0,0,0,0.1s0,0,0,0.1l0.1,0.8c0,0,0,0,0,0.1
						c0,0-0.1,0-0.1,0L245.1,190.8L245.1,190.8z"/>
					<path class="st2" d="M243.6,189.6C243.6,189.6,243.7,189.6,243.6,189.6c0,0.1,0,0.1,0,0.1l-0.3,0.2c0,0-0.1,0-0.1,0
						s-0.1,0-0.1,0l-0.3-0.2c0,0,0,0,0-0.1s0,0,0-0.1l0.3-0.2c0,0,0.1,0,0.1,0s0.1,0,0.1,0L243.6,189.6z M242.5,190.3
						C242.5,190.3,242.5,190.3,242.5,190.3c0,0.1,0,0.1,0,0.1l-0.3,0.2c0,0-0.1,0-0.1,0s-0.1,0-0.1,0l-0.3-0.2c0,0,0,0,0-0.1
						s0,0,0-0.1l0.3-0.2c0,0,0.1,0,0.1,0s0.1,0,0.1,0L242.5,190.3z"/>
					<path class="st2" d="M239.6,189.2C239.6,189.2,239.6,189.2,239.6,189.2c0-0.1,0-0.1,0-0.1l0.4-0.2l-0.3-0.2c0,0,0,0,0-0.1
						s0,0,0-0.1l0.2-0.1c0,0,0.1,0,0.1,0s0.1,0,0.1,0l0.3,0.2l1.3-0.8c0,0,0.1,0,0.1,0s0.1,0,0.1,0l0.3,0.1c0,0,0.1,0.1,0.1,0.1
						l-0.3,1.3c0,0,0,0.1,0,0.1c0,0,0,0-0.1,0.1l-0.2,0.1c0,0-0.1,0-0.1,0s-0.1,0-0.1,0l-1-0.6l-0.4,0.2c0,0-0.1,0-0.1,0
						s-0.1,0-0.1,0L239.6,189.2L239.6,189.2z M241.5,189.2l0.1-0.7l-0.7,0.4L241.5,189.2z"/>
					<path class="st2" d="M239.8,188C239.8,188,239.7,188,239.8,188c-0.1,0-0.2,0-0.2,0l-0.3-0.2c0,0-0.1,0-0.1-0.1c0,0,0,0,0-0.1
						s0-0.1-0.1-0.1s-0.1-0.1-0.1-0.1c-0.1-0.1-0.3-0.1-0.4-0.1c-0.1,0-0.3,0-0.4,0.1c-0.1,0.1-0.2,0.1-0.2,0.2s0.1,0.2,0.2,0.2
						c0.1,0,0.1,0.1,0.2,0.1c0.1,0,0.1,0,0.2,0.1c0.1,0,0.1,0,0.2,0c0.1,0,0.1,0,0.2,0c0,0,0.1,0,0.1,0c0,0,0.1,0,0.1,0l0.3,0.2
						c0,0,0,0,0,0.1s0,0,0,0.1c-0.1,0.1-0.2,0.1-0.3,0.1c-0.1,0-0.2,0-0.4,0c-0.1,0-0.3,0-0.4-0.1c-0.1,0-0.3-0.1-0.4-0.2
						c-0.1-0.1-0.2-0.1-0.3-0.2c-0.1-0.1-0.1-0.2-0.1-0.2c0-0.1,0-0.2,0.1-0.3s0.1-0.2,0.3-0.3c0.1-0.1,0.3-0.1,0.4-0.1s0.3,0,0.4,0
						c0.1,0,0.3,0,0.4,0.1c0.1,0,0.3,0.1,0.4,0.2c0,0,0.1,0.1,0.1,0.1c0.1,0,0.1,0.1,0.1,0.1l0.4-0.3l-0.9-0.5c0,0,0,0,0-0.1
						s0,0,0-0.1l0.2-0.1c0,0,0.1,0,0.1,0c0,0,0.1,0,0.1,0l1.3,0.7c0,0,0,0,0,0.1s0,0,0,0.1L239.8,188L239.8,188z"/>
				</g>
				<g>
					<polygon class="st2" points="276.7,210.6 277.4,210.2 276.5,209.6 275.8,210 					"/>
					<polygon class="st2" points="275.3,209.8 276.7,209 275.8,208.4 274.4,209.2 					"/>
					<polygon class="st2" points="273.9,209 276,207.8 275.1,207.2 273,208.4 					"/>
					<polygon class="st2" points="272.5,208.2 275.3,206.6 274.4,206 271.6,207.6 					"/>
				</g>
				<g>
					<path class="st2" d="M209.1,169.5l-1.3,0.7c-0.3,0.2-0.4,0.4-0.1,0.5l3.5,2c0.1,0,0.2,0.1,0.3,0.1c0.1,0,0.2,0,0.3,0
						c0.2,0,0.4-0.1,0.6-0.2l1.3-0.7c0.3-0.2,0.4-0.4,0.1-0.5l-3.5-2c-0.1-0.1-0.3-0.1-0.6-0.1S209.3,169.4,209.1,169.5L209.1,169.5
						z M211.5,172.6l-3.5-2c-0.2-0.1-0.1-0.3,0.1-0.4l1.3-0.7c0.1-0.1,0.2-0.1,0.3-0.1c0,0,0.1,0,0.1,0c0.1,0,0.1,0,0.1,0l3.5,2
						c0.2,0.1,0.1,0.3-0.1,0.4l-1.3,0.7c-0.1,0.1-0.2,0.1-0.3,0.1C211.7,172.7,211.6,172.7,211.5,172.6L211.5,172.6z"/>
					<g>
						<path class="st2" d="M212.5,171.2l-1.5,0.9l0.6,0.3c0,0,0.1,0,0.2,0l1.1-0.6c0.2-0.1,0.2-0.2,0.1-0.3L212.5,171.2L212.5,171.2
							z"/>
						<polygon class="st2" points="212.2,171.1 211.6,170.7 210.1,171.5 210.7,171.9 						"/>
						<polygon class="st2" points="211.3,170.5 210.7,170.2 209.2,171 209.8,171.4 						"/>
						<path class="st2" d="M209.7,169.7l-1.1,0.6c-0.2,0.1-0.2,0.3,0.1,0.4l0.2,0.1l1.5-0.9l-0.5-0.3
							C209.8,169.7,209.7,169.7,209.7,169.7L209.7,169.7z"/>
					</g>
					<path class="st2" d="M208.9,169.4c-0.1-0.1-0.4,0-0.6,0.2l-0.2,0.1c-0.3,0.1-0.4,0.3-0.3,0.4l0.2,0.1l1.2-0.7
						C209.1,169.5,209,169.4,208.9,169.4L208.9,169.4z"/>
				</g>
				<polygon class="st2" points="218.5,175.1 215.8,172.8 214.4,174.8 216.3,174.3 				"/>
			</g>
		</g>
	</g>
	<g id="Cart">
		<g>
			<g>
				<path class="st3" d="M137,220.8c0-3.2,2.2-7.2,5-8.8c1.5-0.9,2.8-0.9,3.7-0.3l0,0l3.4,1.9l-7.2,12.4l-3.4-1.9l0,0
					C137.6,223.6,137,222.5,137,220.8L137,220.8z"/>
				<path class="st2" d="M145.6,214c-2.8,1.6-5.1,5.6-5,8.8c0,3.2,2.3,4.5,5.1,2.9s5.1-5.6,5-8.8C150.7,213.7,148.4,212.4,145.6,214
					z"/>
				<path class="st5" d="M147.3,218.9c0-1.3-0.8-1.8-1.7-1.3s-1.7,2-1.7,3.3c0,1.3,0.8,1.8,1.7,1.3S147.3,220.2,147.3,218.9z"/>
				<path class="st7" d="M140.5,222.9c0-1.1,0.3-2.3,0.7-3.4l8.7-5.1c0.4,0.6,0.7,1.5,0.7,2.5c0,0,0,0.1,0,0.1L140.5,222.9
					C140.5,222.9,140.5,222.9,140.5,222.9L140.5,222.9z"/>
			</g>
			<path class="st2" d="M173.1,248.5c1.9,0.1,3.9-0.2,5.4-1l47.6-27.4c2.9-1.4,6.1-5.2,6.3-8.8l1.5-33.9l-2.6-0.1l-1.5,33.9
				c-0.1,2.4-2.7,5.4-4.9,6.6l-47.6,27.4c-2.2,1.1-5.9,0.9-8-0.5l-31.8-18.3c-0.8-0.5-1.2-1.1-1.2-1.6s0.5-1,1.3-1.4l51-29.6
				c2.9-1.4,6.1-5.2,6.3-8.8l0.7-18.8L193,166l-0.7,18.8c-0.1,2.4-2.7,5.5-4.8,6.6l-51,29.6c-1.7,0.9-2.7,2.1-2.8,3.6
				c-0.1,1.5,0.8,2.9,2.4,4l31.8,18.3C169.3,247.8,171.2,248.4,173.1,248.5L173.1,248.5z"/>
			<g>
				<path class="st3" d="M181.7,247.7c0-3.2,2.2-7.2,5-8.8c1.5-0.9,2.8-0.9,3.7-0.3l0,0l3.4,1.9l-7.2,12.4l-3.4-1.9l0,0
					C182.3,250.5,181.7,249.4,181.7,247.7L181.7,247.7z"/>
				<path class="st2" d="M190.3,240.9c-2.8,1.6-5.1,5.6-5,8.8c0,3.2,2.3,4.5,5.1,2.9s5.1-5.6,5-8.8
					C195.4,240.5,193.1,239.3,190.3,240.9z"/>
				<path class="st5" d="M192,245.8c0-1.3-0.8-1.8-1.7-1.3s-1.7,2-1.7,3.3c0,1.3,0.8,1.8,1.7,1.3S192.1,247,192,245.8z"/>
			</g>
			<g>
				<path class="st3" d="M216.9,227.4c0-3.2,2.2-7.2,5-8.9c1.5-0.9,2.8-0.9,3.7-0.3l0,0l3.4,1.9l-7.2,12.4l-3.4-1.9l0,0
					C217.5,230.2,216.9,229.1,216.9,227.4L216.9,227.4z"/>
				<path class="st2" d="M225.4,220.6c-2.8,1.6-5,5.6-5,8.9c0,3.2,2.3,4.5,5.1,2.9c2.8-1.6,5-5.6,5-8.9
					C230.5,220.3,228.2,219,225.4,220.6z"/>
				<path class="st5" d="M227.2,225.5c0-1.3-0.8-1.8-1.7-1.3c-0.9,0.6-1.7,2-1.7,3.3s0.8,1.8,1.7,1.3
					C226.5,228.2,227.2,226.7,227.2,225.5z"/>
			</g>
		</g>
		<path class="st2" d="M239.5,136.3c1-3.3-0.5-7.5-3.4-9.4L204.5,109c-2.9-1.9-6-0.6-7,2.7l-2.2,7.1l2.2,1.3l2.4-7.2
			c0.6-1.7,2.3-2.3,3.8-1.3l30.8,17.4c1.8,1.2,2.8,3.9,2.2,6.1l-1.9,6.8l2.6,1.5L239.5,136.3L239.5,136.3z"/>
		<g>
			<g>
				<polygon class="st4" points="190.6,170.6 233.1,195.1 171,231 128.5,206.5 				"/>
				<polygon class="st8" points="190.6,170.6 233.1,195.1 171,231 128.5,206.5 				"/>
			</g>
			<g>
				<polygon class="st4" points="237.4,143.4 195.3,118.8 190.6,170.6 233.1,195.1 				"/>
				<polygon class="st9" points="237.4,143.4 195.3,118.8 190.6,170.6 233.1,195.1 				"/>
			</g>
			<g>
				<path class="st4" d="M118.7,163l9.8,43.4l62.1-35.9l4.7-51.8L118.7,163L118.7,163z M171.8,163.9l10.3-26.6
					c0.8-1.9,2.7-3,4.4-2.3c1.7,0.7,2.5,2.8,1.8,4.7L178,166.3c-0.8,1.9-2.7,3-4.4,2.3C171.8,167.9,171,165.8,171.8,163.9z
					 M152.4,173l10.3-26.6c0.8-1.9,2.7-3,4.4-2.3c1.7,0.7,2.5,2.8,1.8,4.7l-10.3,26.6c-0.8,1.9-2.7,3-4.4,2.3
					C152.4,177.1,151.6,175,152.4,173z M133,182.2l10.3-26.6c0.8-1.9,2.7-3,4.4-2.3c1.7,0.7,2.5,2.8,1.8,4.7l-10.3,26.6
					c-0.8,1.9-2.7,3-4.4,2.3C133,186.2,132.2,184.1,133,182.2z"/>
				<path class="st10" d="M118.7,163l9.8,43.4l62.1-35.9l4.7-51.8L118.7,163L118.7,163z M171.8,163.9l10.3-26.6
					c0.8-1.9,2.7-3,4.4-2.3c1.7,0.7,2.5,2.8,1.8,4.7L178,166.3c-0.8,1.9-2.7,3-4.4,2.3C171.8,167.9,171,165.8,171.8,163.9z
					 M152.4,173l10.3-26.6c0.8-1.9,2.7-3,4.4-2.3c1.7,0.7,2.5,2.8,1.8,4.7l-10.3,26.6c-0.8,1.9-2.7,3-4.4,2.3
					C152.4,177.1,151.6,175,152.4,173z M133,182.2l10.3-26.6c0.8-1.9,2.7-3,4.4-2.3c1.7,0.7,2.5,2.8,1.8,4.7l-10.3,26.6
					c-0.8,1.9-2.7,3-4.4,2.3C133,186.2,132.2,184.1,133,182.2z"/>
			</g>
			<g>
				<path class="st4" d="M161.2,187.6L171,231l62.1-35.9l4.2-51.8L161.2,187.6L161.2,187.6z M211.1,189.6l10.3-26.6
					c0.8-1.9,2.7-3,4.4-2.3c1.7,0.7,2.5,2.8,1.8,4.7L217.3,192c-0.8,1.9-2.7,3-4.4,2.3C211.1,193.7,210.3,191.6,211.1,189.6z
					 M191.7,198.8l10.3-26.6c0.8-1.9,2.7-3,4.4-2.3c1.7,0.7,2.5,2.8,1.8,4.7l-10.3,26.6c-0.8,1.9-2.7,3-4.4,2.3
					C191.7,202.8,190.9,200.7,191.7,198.8z M172.3,207.9l10.3-26.6c0.8-1.9,2.7-3,4.4-2.3c1.7,0.7,2.5,2.8,1.8,4.7l-10.3,26.6
					c-0.8,1.9-2.7,3-4.4,2.3C172.3,211.9,171.5,209.8,172.3,207.9z"/>
				<g class="st11">
					<path class="st12" d="M161.2,187.6L171,231l62.1-35.9l4.2-51.8L161.2,187.6L161.2,187.6z M211.1,189.6l10.3-26.6
						c0.8-1.9,2.7-3,4.4-2.3c1.7,0.7,2.5,2.8,1.8,4.7L217.3,192c-0.8,1.9-2.7,3-4.4,2.3C211.1,193.7,210.3,191.6,211.1,189.6z
						 M191.7,198.8l10.3-26.6c0.8-1.9,2.7-3,4.4-2.3c1.7,0.7,2.5,2.8,1.8,4.7l-10.3,26.6c-0.8,1.9-2.7,3-4.4,2.3
						C191.7,202.8,190.9,200.7,191.7,198.8z M172.3,207.9l10.3-26.6c0.8-1.9,2.7-3,4.4-2.3c1.7,0.7,2.5,2.8,1.8,4.7l-10.3,26.6
						c-0.8,1.9-2.7,3-4.4,2.3C172.3,211.9,171.5,209.8,172.3,207.9z"/>
				</g>
				<g>
					<polygon class="st4" points="161.2,187.6 118.7,163.1 128.5,206.5 171,231 					"/>
					<polygon class="st13" points="161.2,187.6 118.7,163.1 128.5,206.5 171,231 					"/>
				</g>
			</g>
		</g>
	</g>
	<g id="Arrow">
		<polygon class="st3" points="207.6,93.8 202.6,96.7 202.7,81.8 199.7,80.1 186.2,87.9 186.2,106.2 178.3,110.7 195.9,122.1 
			210.5,95.6 		"/>
		<polygon class="st2" points="189.2,89.6 189.2,108 181.3,112.4 195.9,122.1 210.5,95.6 202.6,100.2 202.7,81.8 		"/>
		<polygon class="st5" points="186.2,87.9 189.2,89.6 189.2,108 186.2,106.2 		"/>
	</g>
	<g id="Bag">
		<polygon class="st4" points="164.1,82.7 206.7,58.1 203.2,6.9 164.1,29.4 		"/>
		<polygon class="st14" points="164.1,82.7 206.7,58.1 203.2,6.9 164.1,29.4 		"/>
		<polygon class="st4" points="164.1,29.4 164.1,25.3 153.5,23.2 192.5,0.7 196.1,6.9 203.2,6.9 		"/>
		<polygon class="st15" points="164.1,29.4 164.1,25.3 153.5,23.2 192.5,0.7 196.1,6.9 203.2,6.9 		"/>
		<polygon class="st4" points="192.5,0.7 192.5,13 196.1,11 196.1,6.9 		"/>
		<polygon class="st16" points="192.5,0.7 192.5,13 196.1,11 196.1,6.9 		"/>
		<polygon class="st4" points="203.2,6.9 196.1,6.9 196.1,11 		"/>
		<polygon class="st17" points="203.2,6.9 196.1,6.9 196.1,11 		"/>
		<polygon class="st4" points="153.5,23.2 149.9,74.5 164.1,82.7 164.1,29.4 164.1,25.3 		"/>
		<polygon class="st16" points="153.5,23.2 149.9,74.5 164.1,82.7 164.1,29.4 164.1,25.3 		"/>
		<polygon class="st4" points="164.1,25.3 157,78.6 164.1,82.7 		"/>
		<polygon class="st17" points="164.1,25.3 157,78.6 164.1,82.7 		"/>
		<polygon class="st4" points="164.1,82.7 157.6,74.1 149.9,74.5 		"/>
		<g>
			<path class="st3" d="M165,22.7c0,0.7,0.5,1,1.1,0.6c0.6-0.4,1.1-1.2,1.1-1.9s-0.5-1-1.1-0.6C165.5,21.2,165,22,165,22.7z"/>
			<path class="st3" d="M179.5,14.5c0,0.7,0.5,1,1.1,0.6c0.6-0.4,1.1-1.2,1.1-1.9s-0.5-1-1.1-0.6C180,13,179.5,13.8,179.5,14.5z"/>
			<path class="st3" d="M166.1,21.9c-0.2,0-0.4-0.2-0.4-0.4v-8.9c0-3.9,3.3-9,7.4-11.4c2.3-1.3,4.5-1.6,6-0.7c1.2,0.7,1.9,2,1.9,3.8
				v9c0,0.2-0.2,0.4-0.4,0.4s-0.4-0.2-0.4-0.4v-9c0-1.5-0.5-2.6-1.5-3.2c-1.3-0.7-3.2-0.5-5.2,0.7c-3.9,2.3-7.1,7.1-7.1,10.7v9
				C166.4,21.7,166.3,21.9,166.1,21.9L166.1,21.9z"/>
		</g>
		<g>
			<path class="st2" d="M175.8,28.8c0,0.7,0.5,1,1.1,0.6c0.6-0.4,1.1-1.2,1.1-1.9s-0.5-1-1.1-0.6C176.3,27.3,175.8,28.2,175.8,28.8z
				"/>
			<path class="st2" d="M190.3,20.7c0,0.7,0.5,1,1.1,0.6c0.6-0.4,1.1-1.2,1.1-1.9s-0.5-1-1.1-0.6C190.8,19.1,190.3,20,190.3,20.7z"
				/>
			<path class="st2" d="M176.9,28.1c-0.2,0-0.4-0.2-0.4-0.4v-8.9c0-3.9,3.3-9,7.4-11.4c2.3-1.3,4.5-1.6,6-0.7c1.2,0.7,1.9,2,1.9,3.8
				v9.1c0,0.2-0.2,0.4-0.4,0.4s-0.4-0.2-0.4-0.4v-9.1c0-1.5-0.5-2.6-1.5-3.2c-1.3-0.7-3.2-0.5-5.2,0.7c-3.9,2.2-7.1,7.1-7.1,10.7v9
				C177.3,27.9,177.1,28.1,176.9,28.1L176.9,28.1z"/>
		</g>
	</g>
	<g id="Card">
		<path class="st4" d="M287.4,329.1l49.4-28.5c1-0.6,1.3-1.3,1.3-2c0-0.8,0-3.5,0-3.5c0,0-1.3,1.9-1.3,1.9l-37.4,21.6l-12,6.9
			c-1.8,1-4.7,1-6.5,0l-74.8-43.2c0,0-1.3-1.5-1.3-1.5c0,0-0.1,2.6,0,3.5c0,0.6,0.5,1.2,1.3,1.7l74.9,43.2
			C282.7,330.2,285.6,330.2,287.4,329.1L287.4,329.1z"/>
		<path class="st7" d="M287.4,329.1l49.4-28.5c1-0.6,1.3-1.3,1.3-2c0-0.8,0-3.5,0-3.5c0,0-1.3,1.9-1.3,1.9l-37.4,21.6l-12,6.9
			c-1.8,1-4.7,1-6.5,0l-74.8-43.2c0,0-1.3-1.5-1.3-1.5c0,0-0.1,2.6,0,3.5c0,0.6,0.5,1.2,1.3,1.7l74.9,43.2
			C282.7,330.2,285.6,330.2,287.4,329.1L287.4,329.1z"/>
		<path class="st3" d="M322.6,305.2L322.6,305.2v3.6l14.2-8.2c1-0.6,1.3-1.3,1.3-2c0-0.8,0-3.5,0-3.5c0,0-1.3,1.9-1.3,1.9
			L322.6,305.2L322.6,305.2z"/>
		<path class="st4" d="M336.8,297C336.8,297,336.9,297,336.8,297c1.8-1.1,1.8-2.7,0-3.8L262,250c-1.8-1-4.7-1-6.5,0L206,278.5
			c-1.8,1-1.8,2.7-0.1,3.7c0,0,0.1,0,0.1,0l74.8,43.2c1.8,1,4.7,1,6.5,0l12-6.9L336.8,297L336.8,297z"/>
		<path class="st2" d="M322.6,305.2l14.3-8.2c0,0,0,0,0.1,0c1.7-1,1.7-2.7-0.1-3.7L262,250c-1.8-1-4.7-1-6.5,0l-14.2,8.2
			L322.6,305.2L322.6,305.2z"/>
		<path class="st7" d="M204.8,280.8c0,0-0.1,2.6,0,3.5c0,0.6,0.5,1.2,1.3,1.7l74.8,43.2c1.1,0.6,2.7,0.9,4.1,0.7v-3.6
			c-1.5,0.2-3-0.1-4.1-0.7L206,282.3C206,282.3,204.8,280.8,204.8,280.8L204.8,280.8z"/>
		<g>
			<path class="st18" d="M229,275.9l-1.4-0.8c-0.1,0-0.1-0.1-0.1-0.1c0,0,0-0.1,0.1-0.1s0.1,0,0.2,0c0.1,0,0.2,0,0.2,0.1l0.5,0.3
				l2.1-1.2c0.1-0.1,0.2-0.1,0.1-0.3c0-0.1-0.1-0.2-0.2-0.3l0,0c-0.1,0-0.1-0.1-0.1-0.1c0,0,0-0.1,0.1-0.1s0.1,0,0.2,0
				s0.2,0,0.2,0.1l0,0l0,0c0.3,0.1,0.4,0.3,0.4,0.5c0,0.2-0.1,0.4-0.3,0.5l-2.1,1.2l0.5,0.3c0.1,0,0.1,0.1,0.1,0.1
				c0,0,0,0.1-0.1,0.1c-0.1,0-0.1,0-0.2,0C229.1,276,229,276,229,275.9L229,275.9z"/>
			<path class="st18" d="M233.4,277l-1-0.6c-0.1-0.1-0.3-0.1-0.5-0.1c-0.2,0-0.3,0-0.4,0.1l-0.3,0.2c0,0,0,0,0,0.1c0,0,0,0,0.1,0.1
				l2.1,1.2c0.1,0,0.1,0.1,0.1,0.1c0,0,0,0.1-0.1,0.1c-0.1,0-0.1,0-0.2,0c-0.1,0-0.2,0-0.2-0.1l-2.4-1.4c-0.1,0-0.1-0.1-0.1-0.1
				c0,0,0-0.1,0.1-0.1l0.6-0.4c0.2-0.1,0.5-0.2,0.9-0.2c0.4,0,0.7,0.1,0.9,0.3l1,0.6c0.1,0.1,0.3,0.1,0.5,0.1c0.2,0,0.3,0,0.4-0.1
				l0.4-0.2c0.1-0.1,0.2-0.1,0.1-0.3c0-0.1-0.1-0.2-0.2-0.3l-1-0.6c-0.1-0.1-0.3-0.1-0.5-0.1c-0.2,0-0.3,0-0.4,0.1
				c-0.1,0-0.1,0-0.2,0s-0.2,0-0.2-0.1c-0.1,0-0.1-0.1-0.1-0.1c0,0,0-0.1,0.1-0.1c0.2-0.1,0.5-0.2,0.9-0.2c0.4,0,0.7,0.1,0.9,0.3
				l1,0.6c0.3,0.1,0.4,0.3,0.4,0.5c0,0.2-0.1,0.4-0.3,0.5l-0.4,0.2c-0.2,0.1-0.5,0.2-0.9,0.2C233.9,277.3,233.6,277.2,233.4,277
				L233.4,277z"/>
			<path class="st18" d="M238,279.9l-0.2,0.1c-0.2,0.1-0.5,0.2-0.9,0.2c-0.4,0-0.7-0.1-0.9-0.3l-1-0.6c-0.3-0.1-0.4-0.3-0.4-0.5
				c0-0.2,0.1-0.4,0.3-0.5c0.1,0,0.1,0,0.2,0c0.1,0,0.2,0,0.2,0.1c0.1,0,0.1,0.1,0.1,0.1s0,0.1-0.1,0.1c-0.1,0.1-0.2,0.1-0.1,0.3
				c0,0.1,0.1,0.2,0.2,0.3l1,0.6c0.1,0.1,0.3,0.1,0.5,0.1c0.2,0,0.3,0,0.4-0.1l0.2-0.1c0.1-0.1,0.2-0.1,0.1-0.3s-0.1-0.2-0.2-0.3
				l-0.2-0.1c-0.1,0-0.1-0.1-0.1-0.1c0,0,0-0.1,0.1-0.1c0.1,0,0.1,0,0.2,0c0.1,0,0.2,0,0.2,0.1l0.2,0.1c0.1,0.1,0.3,0.1,0.5,0.1
				c0.2,0,0.3,0,0.4-0.1l0.2-0.1c0.1-0.1,0.2-0.1,0.1-0.3c0-0.1-0.1-0.2-0.2-0.3l-1-0.6c-0.1-0.1-0.3-0.1-0.5-0.1
				c-0.2,0-0.3,0-0.4,0.1c-0.1,0-0.1,0-0.2,0c-0.1,0-0.2,0-0.2-0.1c-0.1,0-0.1-0.1-0.1-0.1c0,0,0-0.1,0.1-0.1
				c0.2-0.1,0.5-0.2,0.9-0.2c0.4,0,0.7,0.1,0.9,0.3l1,0.6c0.3,0.1,0.4,0.3,0.4,0.5s-0.1,0.4-0.3,0.5l-0.2,0.1
				c-0.1,0.1-0.3,0.1-0.4,0.1c-0.2,0-0.3,0-0.5,0c0,0.1,0,0.2,0,0.3C238.2,279.7,238.1,279.8,238,279.9L238,279.9z"/>
			<path class="st18" d="M240.8,282.6c-0.1,0-0.2,0-0.2-0.1c-0.1,0-0.1-0.1-0.1-0.1s0-0.1,0.1-0.1l1.2-0.7c-0.2,0-0.4-0.1-0.6-0.2
				l-1-0.6c-0.3-0.1-0.4-0.3-0.4-0.5c0-0.2,0.1-0.4,0.3-0.5l1-0.6c0.1,0,0.1,0,0.2,0s0.2,0,0.2,0.1c0.1,0,0.1,0.1,0.1,0.1
				c0,0,0,0.1-0.1,0.1l-1,0.6c-0.1,0.1-0.2,0.1-0.1,0.3c0,0.1,0.1,0.2,0.2,0.3l1,0.6c0.1,0.1,0.3,0.1,0.5,0.1s0.3,0,0.4-0.1l1-0.6
				c0.1,0,0.1,0,0.2,0s0.2,0,0.2,0.1c0.1,0,0.1,0.1,0.1,0.1c0,0,0,0.1-0.1,0.1l-2.9,1.7C240.9,282.7,240.9,282.7,240.8,282.6
				L240.8,282.6z"/>
			<path class="st18" d="M248.3,284.5C248.3,284.5,248.3,284.6,248.3,284.5c0,0.1,0,0.1,0,0.1l1.3,0.8c0.3,0.1,0.4,0.3,0.4,0.5
				c0,0.2-0.1,0.4-0.3,0.5l-0.4,0.2c-0.2,0.1-0.5,0.2-0.9,0.2c-0.4,0-0.7-0.1-0.9-0.3l-1-0.6c-0.3-0.1-0.4-0.3-0.4-0.5
				c0-0.2,0.1-0.4,0.3-0.5c0.1,0,0.1,0,0.2,0s0.2,0,0.2,0.1c0.1,0,0.1,0.1,0.1,0.1c0,0,0,0.1-0.1,0.1c-0.1,0.1-0.2,0.1-0.1,0.3
				c0,0.1,0.1,0.2,0.2,0.3l1,0.6c0.1,0.1,0.3,0.1,0.5,0.1c0.2,0,0.3,0,0.4-0.1l0.4-0.2c0.1-0.1,0.2-0.1,0.1-0.3s-0.1-0.2-0.2-0.3
				l-1.4-0.8c-0.1-0.1-0.2-0.2-0.2-0.3c0-0.1,0-0.2,0.1-0.3l1-0.6c0.1,0,0.1,0,0.2,0s0.2,0,0.2,0.1l2.4,1.4c0.1,0,0.1,0.1,0.1,0.1
				c0,0,0,0.1-0.1,0.1c-0.1,0-0.1,0-0.2,0c-0.1,0-0.2,0-0.2-0.1l-2.1-1.2c0,0-0.1,0-0.1,0s-0.1,0-0.1,0L248.3,284.5L248.3,284.5z"/>
			<path class="st18" d="M252.5,287.1l1,0.6c0.3,0.2,0.4,0.3,0.4,0.5c0,0.2-0.1,0.4-0.3,0.5l-0.4,0.2c-0.2,0.1-0.5,0.2-0.9,0.2
				c-0.4,0-0.7-0.1-0.9-0.3l-1-0.6c-0.3-0.1-0.4-0.3-0.4-0.5s0.1-0.4,0.3-0.5l1.7-1c0.2-0.1,0.5-0.2,0.9-0.2c0.4,0,0.7,0.1,0.9,0.3
				l1,0.6c0.3,0.2,0.4,0.3,0.4,0.5c0,0.2-0.1,0.4-0.3,0.5c-0.1,0-0.1,0-0.2,0c-0.1,0-0.2,0-0.2-0.1c-0.1,0-0.1-0.1-0.1-0.1
				c0,0,0-0.1,0.1-0.1c0.1-0.1,0.2-0.1,0.1-0.3s-0.1-0.2-0.2-0.3l-1-0.6c-0.1-0.1-0.3-0.1-0.5-0.1c-0.2,0-0.3,0-0.4,0.1l-0.5,0.3
				C252.2,287,252.3,287,252.5,287.1L252.5,287.1z M250.8,287.5c-0.1,0.1-0.2,0.1-0.1,0.3c0,0.1,0.1,0.2,0.2,0.3l1,0.6
				c0.1,0.1,0.3,0.1,0.5,0.1c0.2,0,0.3,0,0.4-0.1l0.4-0.2c0.1-0.1,0.2-0.1,0.1-0.3c0-0.1-0.1-0.2-0.2-0.3l-1-0.6
				c-0.1-0.1-0.3-0.1-0.5-0.1c-0.2,0-0.3,0-0.4,0.1L250.8,287.5L250.8,287.5z"/>
			<path class="st18" d="M258.1,290.4l-2.9,0.4c0,0,0,0,0,0c0,0,0,0-0.1,0c0,0,0,0-0.1,0s-0.1,0-0.1,0c0,0,0,0-0.1,0
				c0,0-0.1,0-0.1,0s0,0-0.1,0c0,0,0,0-0.1,0c-0.1,0-0.1-0.1-0.1-0.1c0,0,0-0.1,0.1-0.1c0,0,0.1,0,0.3,0c0.9-0.1,1.8-0.3,2.6-0.4
				c0.1,0,0.2,0,0.3-0.1c0.1,0,0.1-0.1,0.2-0.1l0.1,0c0.1-0.1,0.2-0.1,0.1-0.3c0-0.1-0.1-0.2-0.2-0.3l-0.5-0.3l-0.2-0.1l-1-0.6
				c-0.1,0-0.1-0.1-0.1-0.1c0,0,0-0.1,0.1-0.1s0.1,0,0.2,0s0.2,0,0.2,0.1l1,0.6l0.2,0.1l0.5,0.3c0.3,0.1,0.4,0.3,0.4,0.5
				c0,0.2-0.1,0.4-0.3,0.5c-0.1,0-0.2,0.1-0.3,0.1C258.2,290.4,258.1,290.4,258.1,290.4L258.1,290.4z"/>
			<path class="st18" d="M261.1,293.3l-0.2,0.1c-0.2,0.1-0.5,0.2-0.9,0.2s-0.7-0.1-0.9-0.3l-1-0.6c-0.3-0.1-0.4-0.3-0.4-0.5
				c0-0.2,0.1-0.4,0.3-0.5l0.2-0.1c0.1-0.1,0.3-0.1,0.4-0.1c0.2,0,0.3,0,0.5,0c0-0.1,0-0.2,0-0.3c0-0.1,0.1-0.2,0.3-0.3l0.2-0.1
				c0.2-0.1,0.5-0.2,0.9-0.2s0.7,0.1,0.9,0.3l1,0.6c0.3,0.1,0.4,0.3,0.4,0.5s-0.1,0.4-0.3,0.5l-0.2,0.1c-0.1,0.1-0.3,0.1-0.4,0.1
				c-0.2,0-0.3,0-0.5,0c0,0.1,0,0.2,0,0.3C261.3,293.1,261.3,293.2,261.1,293.3z M262.1,292.1c0.1-0.1,0.2-0.1,0.1-0.3
				c0-0.1-0.1-0.2-0.2-0.3l-1-0.6c-0.1-0.1-0.3-0.1-0.5-0.1c-0.2,0-0.3,0-0.4,0.1l-0.2,0.1c-0.1,0.1-0.2,0.1-0.1,0.3
				c0,0.1,0.1,0.2,0.2,0.3l1,0.6c0.1,0.1,0.3,0.1,0.5,0.1c0.2,0,0.3,0,0.4-0.1L262.1,292.1z M260.6,293c0.1-0.1,0.2-0.1,0.1-0.3
				s-0.1-0.2-0.2-0.3l-1-0.6c-0.1-0.1-0.3-0.1-0.5-0.1c-0.2,0-0.3,0-0.4,0.1l-0.2,0.1c-0.1,0.1-0.2,0.1-0.1,0.3
				c0,0.1,0.1,0.2,0.2,0.3l1,0.6c0.1,0.1,0.3,0.1,0.5,0.1c0.2,0,0.3,0,0.4-0.1L260.6,293z"/>
			<path class="st18" d="M266.8,297.8l-1-0.6c-0.3-0.1-0.4-0.3-0.4-0.5c0-0.2,0.1-0.4,0.3-0.5c0.1,0,0.1,0,0.2,0
				c0.1,0,0.2,0,0.2,0.1c0.1,0,0.1,0.1,0.1,0.1c0,0,0,0.1-0.1,0.1c-0.1,0.1-0.2,0.1-0.1,0.3c0,0.1,0.1,0.2,0.2,0.3l1,0.6
				c0.1,0.1,0.3,0.1,0.5,0.1c0.2,0,0.3,0,0.4-0.1l0.5-0.3c-0.2,0-0.4-0.1-0.6-0.2l-1-0.6c-0.3-0.1-0.4-0.3-0.4-0.5
				c0-0.2,0.1-0.4,0.3-0.5l0.4-0.2c0.2-0.1,0.5-0.2,0.9-0.2s0.7,0.1,0.9,0.3l1,0.6c0.3,0.2,0.4,0.3,0.4,0.5c0,0.2-0.1,0.4-0.3,0.5
				l-1.7,1c-0.2,0.1-0.5,0.2-0.9,0.2S267.1,297.9,266.8,297.8L266.8,297.8z M269.8,296.6c0.1-0.1,0.2-0.1,0.1-0.3
				c0-0.1-0.1-0.2-0.2-0.3l-1-0.6c-0.1-0.1-0.3-0.1-0.5-0.1c-0.2,0-0.3,0-0.4,0.1l-0.4,0.2c-0.1,0.1-0.2,0.1-0.1,0.3
				c0,0.1,0.1,0.2,0.2,0.3l1,0.6c0.1,0.1,0.3,0.1,0.5,0.1c0.2,0,0.3,0,0.4-0.1L269.8,296.6L269.8,296.6z"/>
			<path class="st18" d="M270.5,299.9L269,299c-0.1,0-0.1-0.1-0.1-0.1c0,0,0-0.1,0.1-0.1c0.1,0,0.1,0,0.2,0c0.1,0,0.2,0,0.2,0.1
				l0.5,0.3l2.1-1.2c0.1-0.1,0.2-0.1,0.1-0.3c0-0.1-0.1-0.2-0.2-0.3l0,0c-0.1,0-0.1-0.1-0.1-0.1s0-0.1,0.1-0.1s0.1,0,0.2,0
				s0.2,0,0.2,0.1l0,0l0,0c0.3,0.1,0.4,0.3,0.4,0.5c0,0.2-0.1,0.4-0.3,0.5l-2.1,1.2l0.5,0.3c0.1,0,0.1,0.1,0.1,0.1
				c0,0,0,0.1-0.1,0.1s-0.1,0-0.2,0C270.6,299.9,270.5,299.9,270.5,299.9L270.5,299.9z"/>
			<path class="st18" d="M273.6,301.7l-1-0.6c-0.3-0.1-0.4-0.3-0.4-0.5s0.1-0.4,0.3-0.5l1.7-1c0.2-0.1,0.5-0.2,0.9-0.2
				s0.7,0.1,0.9,0.3l1,0.6c0.3,0.1,0.4,0.3,0.4,0.5c0,0.2-0.1,0.4-0.3,0.5l-1.7,1c-0.2,0.1-0.5,0.2-0.9,0.2S273.9,301.8,273.6,301.7
				L273.6,301.7z M273,300.9l1,0.6c0.1,0,0.2,0.1,0.3,0.1l0.3-2.1l-1.6,0.9c-0.1,0.1-0.2,0.1-0.1,0.3
				C272.8,300.7,272.9,300.8,273,300.9z M276.5,300l-1-0.6c-0.1,0-0.2-0.1-0.3-0.1l-0.3,2.1l1.6-0.9c0.1-0.1,0.2-0.1,0.1-0.3
				C276.7,300.1,276.6,300.1,276.5,300z"/>
			<path class="st18" d="M277.2,303.8l-1.5-0.8c-0.1,0-0.1-0.1-0.1-0.1c0,0,0-0.1,0.1-0.1c0.1,0,0.1,0,0.2,0c0.1,0,0.2,0,0.2,0.1
				l0.5,0.3l2.1-1.2c0.1-0.1,0.2-0.1,0.1-0.3c0-0.1-0.1-0.2-0.2-0.3l0,0c-0.1,0-0.1-0.1-0.1-0.1c0,0,0-0.1,0.1-0.1s0.1,0,0.2,0
				s0.2,0,0.2,0.1l0,0l0,0c0.3,0.1,0.4,0.3,0.4,0.5c0,0.2-0.1,0.4-0.3,0.5l-2.1,1.2l0.5,0.3c0.1,0,0.1,0.1,0.1,0.1
				c0,0,0,0.1-0.1,0.1c-0.1,0-0.1,0-0.2,0C277.3,303.8,277.3,303.8,277.2,303.8L277.2,303.8z"/>
			<path class="st18" d="M284,307.6l-1.5-0.8c-0.1,0-0.1-0.1-0.1-0.1c0,0,0-0.1,0.1-0.1c0.1,0,0.1,0,0.2,0c0.1,0,0.2,0,0.2,0.1
				l0.5,0.3l2.1-1.2c0.1-0.1,0.2-0.1,0.1-0.3c0-0.1-0.1-0.2-0.2-0.3l0,0c-0.1,0-0.1-0.1-0.1-0.1s0-0.1,0.1-0.1s0.1,0,0.2,0
				s0.2,0,0.2,0.1l0,0l0,0c0.3,0.1,0.4,0.3,0.4,0.5c0,0.2-0.1,0.4-0.3,0.5l-2.1,1.2l0.5,0.3c0.1,0,0.1,0.1,0.1,0.1
				c0,0,0,0.1-0.1,0.1c-0.1,0-0.1,0-0.2,0C284.1,307.7,284,307.7,284,307.6L284,307.6z"/>
			<path class="st18" d="M288.3,308.7l-1-0.6c-0.1-0.1-0.3-0.1-0.5-0.1c-0.2,0-0.3,0-0.4,0.1l-0.3,0.2c0,0,0,0,0,0.1c0,0,0,0,0,0.1
				l2,1.2c0.1,0,0.1,0.1,0.1,0.1c0,0,0,0.1-0.1,0.1c-0.1,0-0.1,0-0.2,0c-0.1,0-0.2,0-0.2-0.1l-2.4-1.4c-0.1,0-0.1-0.1-0.1-0.1
				c0,0,0-0.1,0.1-0.1l0.6-0.4c0.2-0.1,0.5-0.2,0.9-0.2s0.7,0.1,0.9,0.3l1,0.6c0.1,0.1,0.3,0.1,0.5,0.1c0.2,0,0.3,0,0.4-0.1l0.4-0.2
				c0.1-0.1,0.2-0.1,0.1-0.3c0-0.1-0.1-0.2-0.2-0.3l-1-0.6c-0.1-0.1-0.3-0.1-0.5-0.1c-0.2,0-0.3,0-0.4,0.1c-0.1,0-0.1,0-0.2,0
				s-0.2,0-0.2-0.1s-0.1-0.1-0.1-0.1c0,0,0-0.1,0.1-0.1c0.2-0.1,0.5-0.2,0.9-0.2s0.7,0.1,0.9,0.3l1,0.6c0.3,0.2,0.4,0.3,0.4,0.5
				c0,0.2-0.1,0.4-0.3,0.5l-0.4,0.2c-0.2,0.1-0.5,0.2-0.9,0.2S288.6,308.9,288.3,308.7L288.3,308.7z"/>
			<path class="st18" d="M290.7,311.5l-1.5-0.8c-0.1,0-0.1-0.1-0.1-0.1c0,0,0-0.1,0.1-0.1c0.1,0,0.1,0,0.2,0c0.1,0,0.2,0,0.2,0.1
				l0.5,0.3l2.1-1.2c0.1-0.1,0.2-0.1,0.1-0.3c0-0.1-0.1-0.2-0.2-0.3l0,0c-0.1,0-0.1-0.1-0.1-0.1s0-0.1,0.1-0.1s0.1,0,0.2,0
				s0.2,0,0.2,0.1l0,0l0,0c0.3,0.1,0.4,0.3,0.4,0.5c0,0.2-0.1,0.4-0.3,0.5l-2.1,1.2l0.5,0.3c0.1,0,0.1,0.1,0.1,0.1
				c0,0,0,0.1-0.1,0.1c-0.1,0-0.1,0-0.2,0C290.8,311.6,290.8,311.6,290.7,311.5L290.7,311.5z"/>
			<path class="st18" d="M295.9,313.3l-0.2,0.1c-0.2,0.1-0.5,0.2-0.9,0.2s-0.7-0.1-0.9-0.3l-1-0.6c-0.3-0.1-0.4-0.3-0.4-0.5
				s0.1-0.4,0.3-0.5c0.1,0,0.1,0,0.2,0s0.2,0,0.2,0.1s0.1,0.1,0.1,0.1c0,0,0,0.1-0.1,0.1c-0.1,0.1-0.2,0.1-0.1,0.3
				c0,0.1,0.1,0.2,0.2,0.3l1,0.6c0.1,0.1,0.3,0.1,0.5,0.1c0.2,0,0.3,0,0.4-0.1l0.2-0.1c0.1-0.1,0.2-0.1,0.1-0.3s-0.1-0.2-0.2-0.3
				l-0.2-0.1c-0.1,0-0.1-0.1-0.1-0.1c0,0,0-0.1,0.1-0.1s0.1,0,0.2,0s0.2,0,0.2,0.1l0.2,0.1c0.1,0.1,0.3,0.1,0.5,0.1s0.3,0,0.4-0.1
				l0.2-0.1c0.1-0.1,0.2-0.1,0.1-0.3c0-0.1-0.1-0.2-0.2-0.3l-1-0.6c-0.1-0.1-0.3-0.1-0.5-0.1c-0.2,0-0.3,0-0.4,0.1
				c-0.1,0-0.1,0-0.2,0c-0.1,0-0.2,0-0.2-0.1c-0.1,0-0.1-0.1-0.1-0.1c0,0,0-0.1,0.1-0.1c0.2-0.1,0.5-0.2,0.9-0.2s0.7,0.1,0.9,0.3
				l1,0.6c0.3,0.1,0.4,0.3,0.4,0.5c0,0.2-0.1,0.4-0.3,0.5l-0.2,0.1c-0.1,0.1-0.3,0.1-0.4,0.1c-0.2,0-0.3,0-0.5,0c0,0.1,0,0.2,0,0.3
				C296.1,313.2,296,313.3,295.9,313.3L295.9,313.3z"/>
		</g>
		<g>
			<g>
				<path class="st18" d="M280.1,313.1l-0.9-0.5c0,0-0.1,0-0.1-0.1s0,0,0-0.1c0,0,0.1,0,0.1,0c0,0,0.1,0,0.1,0l0.3,0.2l1.2-0.7
					c0.1,0,0.1-0.1,0.1-0.1c0-0.1,0-0.1-0.1-0.2l0,0c0,0-0.1,0-0.1-0.1s0,0,0-0.1c0,0,0.1,0,0.1,0c0,0,0.1,0,0.1,0l0,0l0,0
					c0.2,0.1,0.2,0.2,0.3,0.3c0,0.1,0,0.2-0.2,0.3l-1.2,0.7l0.3,0.2c0,0,0.1,0,0.1,0.1s0,0,0,0.1c0,0-0.1,0-0.1,0
					C280.2,313.2,280.1,313.2,280.1,313.1L280.1,313.1z"/>
				<path class="st18" d="M282.6,313.8l-0.6-0.3c-0.1,0-0.2-0.1-0.3-0.1c-0.1,0-0.2,0-0.3,0l-0.2,0.1c0,0,0,0,0,0c0,0,0,0,0,0
					l1.2,0.7c0,0,0.1,0,0.1,0.1s0,0.1,0,0.1c0,0-0.1,0-0.1,0c0,0-0.1,0-0.1,0l-1.4-0.8c0,0-0.1,0-0.1-0.1s0,0,0-0.1l0.4-0.2
					c0.1-0.1,0.3-0.1,0.5-0.1c0.2,0,0.4,0.1,0.5,0.1l0.6,0.3c0.1,0,0.2,0.1,0.3,0.1c0.1,0,0.2,0,0.3,0l0.2-0.1
					c0.1,0,0.1-0.1,0.1-0.1c0-0.1,0-0.1-0.1-0.2l-0.6-0.3c-0.1,0-0.2-0.1-0.3-0.1c-0.1,0-0.2,0-0.3,0c0,0-0.1,0-0.1,0
					c0,0-0.1,0-0.1,0c0,0-0.1,0-0.1-0.1c0,0,0,0,0-0.1c0.1-0.1,0.3-0.1,0.5-0.1c0.2,0,0.4,0.1,0.5,0.1l0.6,0.3
					c0.2,0.1,0.2,0.2,0.3,0.3c0,0.1,0,0.2-0.2,0.3l-0.2,0.1c-0.1,0.1-0.3,0.1-0.5,0.1C283,313.9,282.8,313.9,282.6,313.8
					L282.6,313.8z"/>
				<path class="st18" d="M286,315.7l-0.6-0.3c-0.1,0-0.2-0.1-0.3-0.1c-0.1,0-0.2,0-0.3,0l-0.2,0.1c0,0,0,0,0,0s0,0,0,0l1.2,0.7
					c0,0,0.1,0,0.1,0.1s0,0,0,0.1c0,0-0.1,0-0.1,0c0,0-0.1,0-0.1,0l-1.4-0.8c0,0-0.1,0-0.1-0.1s0,0,0-0.1l0.4-0.2
					c0.1-0.1,0.3-0.1,0.5-0.1c0.2,0,0.4,0.1,0.5,0.1l0.6,0.3c0.1,0,0.2,0.1,0.3,0.1c0.1,0,0.2,0,0.3,0l0.2-0.1
					c0.1,0,0.1-0.1,0.1-0.1s0-0.1-0.1-0.2l-0.6-0.3c-0.1,0-0.2-0.1-0.3-0.1c-0.1,0-0.2,0-0.3,0c0,0-0.1,0-0.1,0c0,0-0.1,0-0.1,0
					c0,0-0.1,0-0.1-0.1c0,0,0,0,0-0.1c0.1-0.1,0.3-0.1,0.5-0.1c0.2,0,0.4,0.1,0.5,0.1l0.6,0.3c0.2,0.1,0.2,0.2,0.3,0.3
					c0,0.1,0,0.2-0.2,0.3l-0.2,0.1c-0.1,0.1-0.3,0.1-0.5,0.1C286.4,315.9,286.2,315.8,286,315.7L286,315.7z"/>
				<path class="st18" d="M288.7,317.4l-0.1,0.1c-0.1,0.1-0.3,0.1-0.5,0.1c-0.2,0-0.4-0.1-0.5-0.1l-0.6-0.3
					c-0.2-0.1-0.2-0.2-0.3-0.3c0-0.1,0-0.2,0.2-0.3c0,0,0.1,0,0.1,0c0,0,0.1,0,0.1,0c0,0,0.1,0,0.1,0.1s0,0,0,0.1
					c-0.1,0-0.1,0.1-0.1,0.1c0,0.1,0,0.1,0.1,0.2l0.6,0.3c0.1,0,0.2,0.1,0.3,0.1c0.1,0,0.2,0,0.3,0l0.1-0.1c0.1,0,0.1-0.1,0.1-0.1
					s0-0.1-0.1-0.2l-0.1-0.1c0,0-0.1,0-0.1-0.1c0,0,0,0,0-0.1s0.1,0,0.1,0c0,0,0.1,0,0.1,0l0.1,0.1c0.1,0,0.2,0.1,0.3,0.1
					c0.1,0,0.2,0,0.3,0l0.1-0.1c0.1,0,0.1-0.1,0.1-0.1c0-0.1,0-0.1-0.1-0.2l-0.6-0.3c-0.1,0-0.2-0.1-0.3-0.1c-0.1,0-0.2,0-0.3,0
					c0,0-0.1,0-0.1,0s-0.1,0-0.1,0c0,0-0.1,0-0.1-0.1s0,0,0-0.1c0.1-0.1,0.3-0.1,0.5-0.1c0.2,0,0.4,0.1,0.5,0.1l0.6,0.3
					c0.2,0.1,0.2,0.2,0.3,0.3c0,0.1,0,0.2-0.2,0.3l-0.1,0.1c-0.1,0-0.2,0.1-0.3,0.1c-0.1,0-0.2,0-0.3,0c0,0.1,0,0.1,0,0.2
					C288.8,317.4,288.8,317.4,288.7,317.4L288.7,317.4z"/>
			</g>
			<path class="st18" d="M282.8,315.1C282.8,315.1,282.8,315.1,282.8,315.1c0-0.1,0-0.1,0-0.1l2.5-1c0,0,0.1,0,0.1,0
				c0,0,0,0.1,0,0.1l-2.5,1C282.9,315.1,282.9,315.1,282.8,315.1L282.8,315.1z"/>
		</g>
		<g>
			<path class="st4" d="M312.1,303.7l-8.2,4.7c-0.6,0.4-1.6,0.4-2.2,0l-10-5.7c-0.6-0.4-0.6-0.9,0-1.3l8.2-4.7
				c0.6-0.4,1.6-0.4,2.2,0c2.7,1.6,7.3,4.1,10,5.7C312.7,302.8,312.7,303.4,312.1,303.7z"/>
			<g>
				<defs>
					<path id="SVGID_1_" d="M312.1,303.7l-8.2,4.7c-0.6,0.4-1.6,0.4-2.2,0l-10-5.7c-0.6-0.4-0.6-0.9,0-1.3l8.2-4.7
						c0.6-0.4,1.6-0.4,2.2,0c2.7,1.6,7.3,4.1,10,5.7C312.7,302.8,312.7,303.4,312.1,303.7z"/>
				</defs>
				<clipPath id="SVGID_2_">
					<use xlink:href="#SVGID_1_"  style="overflow:visible;"/>
				</clipPath>
				<g class="st19">
					<path class="st6" d="M312.1,303.7l-8.2,4.7c-0.6,0.4-1.6,0.4-2.2,0l-10-5.7c-0.6-0.4-0.6-0.9,0-1.3l8.2-4.7
						c0.6-0.4,1.6-0.4,2.2,0c2.7,1.6,7.3,4.1,10,5.7C312.7,302.8,312.7,303.4,312.1,303.7z"/>
					<polygon class="st4" points="311.8,306.1 312.6,306 296.2,296.6 295.4,296.8 					"/>
					<polygon class="st4" points="301.4,304.8 302.1,305 306.3,302.5 305.6,302.4 					"/>
					<polygon class="st4" points="297.5,302.6 298.3,302.8 302.4,300.4 301.7,300.3 					"/>
					<polygon class="st4" points="307.6,308.6 308.4,308.4 292,299 291.3,299.2 					"/>
				</g>
			</g>
		</g>
		<path class="st2" d="M259.9,302.7l-39.1-22.6c-0.7-0.4-1.8-0.4-2.5,0l-0.2,0.1c-0.7,0.4-0.7,1,0,1.4l39.1,22.6
			c0.7,0.4,1.8,0.4,2.5,0l0.2-0.1C260.6,303.7,260.6,303.1,259.9,302.7z"/>
		<g>
			<path class="st4" d="M256.3,259.4c0.1,0,0.1,0,0.2,0c0.1,0,0.1,0,0.2,0l0.6,0.4c0.1,0,0.1,0.1,0.1,0.1s0,0.1-0.1,0.1
				c-0.2,0.1-0.5,0.2-0.8,0.3c-0.3,0.1-0.6,0.1-1,0.1c-0.4,0-0.7-0.1-1.1-0.2c-0.4-0.1-0.8-0.3-1.2-0.5c-0.4-0.2-0.6-0.4-0.8-0.6
				c-0.2-0.2-0.3-0.4-0.3-0.6c0-0.2,0.1-0.4,0.2-0.6c0.1-0.2,0.4-0.4,0.7-0.6c0.2-0.1,0.4-0.2,0.6-0.4c0.2-0.1,0.4-0.3,0.7-0.4
				c0.3-0.2,0.7-0.3,1-0.4s0.7-0.1,1.1-0.1s0.8,0.1,1.1,0.1c0.4,0.1,0.7,0.2,1.1,0.5c0.4,0.2,0.7,0.5,0.9,0.7
				c0.2,0.2,0.3,0.4,0.3,0.6c0,0.2,0,0.4-0.2,0.6c-0.1,0.2-0.3,0.3-0.5,0.5c-0.1,0-0.1,0.1-0.2,0c-0.1,0-0.1,0-0.2,0l-0.6-0.4
				c0,0-0.1-0.1-0.1-0.1c0,0,0-0.1,0.1-0.1c0.1-0.1,0.1-0.1,0.2-0.2c0-0.1,0-0.2,0-0.3s-0.1-0.2-0.2-0.3c-0.1-0.1-0.3-0.2-0.5-0.3
				s-0.4-0.2-0.6-0.3s-0.4-0.1-0.6-0.1c-0.2,0-0.4,0-0.6,0.1s-0.4,0.1-0.5,0.2c-0.2,0.1-0.4,0.2-0.6,0.4c-0.2,0.1-0.4,0.3-0.6,0.4
				c-0.1,0.1-0.3,0.2-0.4,0.3c-0.1,0.1-0.1,0.2-0.1,0.3s0,0.2,0.1,0.4c0.1,0.1,0.2,0.2,0.4,0.4c0.2,0.1,0.4,0.2,0.6,0.3
				c0.2,0.1,0.4,0.1,0.6,0.1c0.2,0,0.3,0,0.5,0S256.2,259.4,256.3,259.4L256.3,259.4z"/>
			<path class="st4" d="M264,259.6c0.6,0.4,1,0.7,1,1.1c0,0.4-0.2,0.7-0.7,1c-0.4,0.2-0.8,0.4-1.2,0.4c-0.4,0-0.9,0-1.3-0.1
				l-0.8,1.7c0,0,0,0-0.1,0.1c0,0-0.1,0-0.2,0s-0.1,0-0.2,0l-0.6-0.4c-0.1-0.1-0.1-0.1-0.1-0.2s0-0.1,0-0.1l0.8-1.6l-1-0.6l-1.8,1
				c-0.1,0-0.1,0-0.2,0s-0.1,0-0.2,0l-0.6-0.4c-0.1,0-0.1-0.1-0.1-0.1s0-0.1,0.1-0.1l4.9-2.8c0.1,0,0.1,0,0.2,0c0.1,0,0.1,0,0.2,0
				L264,259.6L264,259.6z M260.5,260.4l1.1,0.6c0.3,0.2,0.6,0.3,0.9,0.3c0.3,0,0.5,0,0.8-0.2s0.4-0.3,0.3-0.5
				c-0.1-0.1-0.3-0.3-0.5-0.5l-1.1-0.6L260.5,260.4L260.5,260.4z"/>
			<path class="st4" d="M266.1,265.9c0.1,0,0.1,0.1,0.1,0.1s0,0.1-0.1,0.1l-0.5,0.3c-0.1,0-0.1,0-0.2,0s-0.1,0-0.2,0l-3.4-1.9
				c-0.1,0-0.1-0.1-0.1-0.1s0-0.1,0.1-0.1l4.9-2.8c0.1,0,0.1,0,0.2,0c0.1,0,0.1,0,0.2,0l3.3,1.9c0.1,0,0.1,0.1,0.1,0.1
				s0,0.1-0.1,0.1l-0.5,0.3c-0.1,0-0.1,0-0.2,0s-0.1,0-0.2,0l-2.5-1.4l-1.2,0.7l2.3,1.3c0.1,0,0.1,0.1,0.1,0.1s0,0.1-0.1,0.1
				l-0.5,0.3c-0.1,0-0.1,0-0.2,0s-0.1,0-0.2,0l-2.3-1.3l-1.3,0.7L266.1,265.9L266.1,265.9z"/>
			<path class="st4" d="M273.7,265.2c0.4,0.2,0.6,0.4,0.8,0.6s0.3,0.4,0.3,0.6c0,0.2-0.1,0.4-0.2,0.6s-0.4,0.4-0.7,0.6
				c-0.4,0.2-0.7,0.5-1.1,0.6c-0.3,0.2-0.7,0.3-1,0.4s-0.7,0.1-1.1,0.1s-0.7,0-1.1-0.1c-0.4-0.1-0.7-0.3-1.1-0.5l-1.9-1.1
				c-0.1,0-0.1-0.1-0.1-0.1s0-0.1,0.1-0.1l4.9-2.8c0.1,0,0.1,0,0.2,0s0.1,0,0.2,0L273.7,265.2L273.7,265.2z M272.9,267.2
				c0.1-0.1,0.3-0.2,0.4-0.3c0.1-0.1,0.1-0.2,0.1-0.4s0-0.2-0.1-0.4c-0.1-0.1-0.3-0.3-0.5-0.4l-1-0.6l-3.4,2l1.1,0.6
				c0.2,0.1,0.4,0.2,0.6,0.3c0.2,0,0.4,0.1,0.6,0.1s0.4,0,0.6-0.1c0.2,0,0.4-0.1,0.5-0.2C272.1,267.6,272.5,267.4,272.9,267.2
				L272.9,267.2z"/>
			<path class="st4" d="M271.9,270.3c-0.1,0-0.1-0.1-0.1-0.1s0-0.1,0.1-0.1l4.9-2.8c0.1,0,0.1,0,0.2,0s0.1,0,0.2,0l0.6,0.4
				c0.1,0,0.1,0.1,0.1,0.1s0,0.1-0.1,0.1l-4.9,2.8c-0.1,0-0.1,0-0.2,0c-0.1,0-0.1,0-0.2,0L271.9,270.3z"/>
			<path class="st4" d="M282.8,270.5c0.1,0,0.1,0.1,0.1,0.1s0,0.1-0.1,0.1l-0.5,0.3c-0.1,0-0.1,0-0.2,0s-0.1,0-0.2,0l-1.4-0.8
				l-4.2,2.4c-0.1,0-0.1,0-0.2,0c-0.1,0-0.1,0-0.2,0l-0.6-0.4c-0.1,0-0.1-0.1-0.1-0.1s0-0.1,0.1-0.1l4.2-2.4l-1.4-0.8
				c-0.1,0-0.1-0.1-0.1-0.1s0-0.1,0.1-0.1l0.5-0.3c0.1,0,0.1,0,0.2,0c0.1,0,0.1,0,0.2,0L282.8,270.5L282.8,270.5z"/>
			<path class="st4" d="M284.9,275.9c0.1,0,0.1,0,0.2,0c0.1,0,0.1,0,0.2,0l0.6,0.4c0.1,0,0.1,0.1,0.1,0.1s0,0.1-0.1,0.1
				c-0.2,0.1-0.5,0.2-0.8,0.3c-0.3,0.1-0.6,0.1-1,0.1c-0.4,0-0.7-0.1-1.1-0.2c-0.4-0.1-0.8-0.3-1.2-0.5c-0.4-0.2-0.6-0.4-0.8-0.6
				c-0.2-0.2-0.3-0.4-0.3-0.6s0.1-0.4,0.2-0.6c0.1-0.2,0.4-0.4,0.7-0.6c0.2-0.1,0.4-0.2,0.6-0.4c0.2-0.1,0.5-0.3,0.7-0.4
				c0.3-0.2,0.7-0.3,1-0.4s0.7-0.1,1.1-0.1s0.8,0,1.1,0.1s0.7,0.2,1.1,0.5c0.4,0.2,0.7,0.5,0.9,0.7c0.2,0.2,0.3,0.4,0.3,0.6
				c0,0.2,0,0.4-0.2,0.6s-0.3,0.3-0.5,0.5c-0.1,0-0.1,0.1-0.2,0c-0.1,0-0.1,0-0.2,0l-0.6-0.4c0,0-0.1-0.1-0.1-0.1c0,0,0-0.1,0.1-0.1
				c0.1-0.1,0.1-0.1,0.2-0.2c0-0.1,0-0.2,0-0.3s-0.1-0.2-0.2-0.3c-0.1-0.1-0.3-0.2-0.5-0.3s-0.4-0.2-0.6-0.3s-0.4-0.1-0.6-0.1
				c-0.2,0-0.4,0-0.6,0.1s-0.4,0.1-0.5,0.2c-0.2,0.1-0.4,0.2-0.6,0.4c-0.2,0.1-0.4,0.3-0.6,0.4c-0.1,0.1-0.3,0.2-0.4,0.3
				c-0.1,0.1-0.1,0.2-0.1,0.3s0,0.2,0.1,0.4s0.2,0.2,0.4,0.4c0.2,0.1,0.4,0.2,0.6,0.3c0.2,0.1,0.4,0.1,0.6,0.1c0.2,0,0.3,0,0.5,0
				S284.8,276,284.9,275.9L284.9,275.9z"/>
			<path class="st4" d="M293,276.3c0.1,0,0.1,0.1,0.1,0.1c0,0,0,0.1-0.1,0.2l-3,3.9c0,0,0,0,0,0c-0.1,0-0.1,0-0.2,0s-0.1,0-0.2,0
				l-0.5-0.3c-0.1-0.1-0.1-0.1-0.1-0.2c0,0,0-0.1,0-0.1l0.5-0.7l-2.4-1.4l-1.2,0.3c-0.1,0-0.1,0-0.2,0s-0.2,0-0.3-0.1l-0.5-0.3
				c-0.1,0-0.1-0.1-0.1-0.1s0-0.1,0.1-0.1c0,0,0,0,0.1,0l6.7-1.7c0.1,0,0.2,0,0.3,0s0.2,0,0.3,0.1L293,276.3L293,276.3z M290,278.5
				l1.3-1.7l-3,0.8L290,278.5L290,278.5z"/>
			<path class="st4" d="M298,279.2c0.6,0.4,1,0.7,1,1.1c0,0.4-0.2,0.7-0.7,1c-0.4,0.2-0.8,0.4-1.2,0.4c-0.4,0-0.9,0-1.3-0.1
				l-0.8,1.7c0,0,0,0-0.1,0.1c0,0-0.1,0-0.2,0s-0.1,0-0.2,0l-0.6-0.4c-0.1-0.1-0.1-0.1-0.1-0.2c0-0.1,0-0.1,0-0.1l0.8-1.6l-1-0.6
				l-1.8,1c-0.1,0-0.1,0-0.2,0s-0.1,0-0.2,0l-0.6-0.4c-0.1,0-0.1-0.1-0.1-0.1s0-0.1,0.1-0.1l4.9-2.8c0.1,0,0.1,0,0.2,0s0.1,0,0.2,0
				L298,279.2L298,279.2z M294.4,280l1.1,0.6c0.3,0.2,0.6,0.3,0.9,0.3s0.5,0,0.8-0.2c0.3-0.2,0.4-0.3,0.3-0.5
				c-0.1-0.2-0.3-0.3-0.5-0.5l-1.1-0.6L294.4,280L294.4,280z"/>
			<path class="st4" d="M303.1,282.2c0.4,0.2,0.6,0.4,0.8,0.6s0.3,0.4,0.3,0.6c0,0.2-0.1,0.4-0.2,0.6s-0.4,0.4-0.7,0.6
				c-0.4,0.2-0.7,0.5-1.1,0.6c-0.3,0.2-0.7,0.3-1,0.4s-0.7,0.1-1.1,0.1s-0.7,0-1.1-0.1c-0.4-0.1-0.7-0.3-1.1-0.5l-1.9-1.1
				c-0.1,0-0.1-0.1-0.1-0.1s0-0.1,0.1-0.1l4.9-2.8c0.1,0,0.1,0,0.2,0c0.1,0,0.1,0,0.2,0L303.1,282.2L303.1,282.2z M302.2,284.1
				c0.1-0.1,0.3-0.2,0.4-0.3c0.1-0.1,0.1-0.2,0.1-0.4s0-0.2-0.1-0.4c-0.1-0.1-0.3-0.3-0.5-0.4l-1-0.6l-3.4,2l1.1,0.6
				c0.2,0.1,0.4,0.2,0.6,0.3c0.2,0,0.4,0.1,0.6,0.1s0.4,0,0.6-0.1c0.2,0,0.4-0.1,0.5-0.2C301.5,284.6,301.9,284.4,302.2,284.1
				L302.2,284.1z"/>
		</g>
	</g>
	<g id="Character">
		<g>
			<path class="st20" d="M89.6,77.4c2.2,4.7,6,12.6,8,16.9l8.1-9.5h6.8c0,0-8.2,17.4-13,21.4c-1.8,1.5-4.1,1.3-5.6-0.3
				s-3.3-4.2-5.5-7.5c-3.8-5.9-5.6-8.5-5.6-8.5L78,69.5C82.3,69.1,86.6,70.9,89.6,77.4L89.6,77.4z"/>
			<path class="st4" d="M77.2,69.4c2.6-0.1,5.4-0.4,7.9,1.7c1.6,1.4,3.7,3.7,5.4,7.6c1.7,3.9,4.3,8.9,4.3,8.9s-1.8,2.8-4.8,5.1
				c-3,2.3-5.8,2.4-5.8,2.4L77.2,69.4L77.2,69.4z"/>
			<path class="st21" d="M77.2,69.4c2.6-0.1,5.4-0.4,7.9,1.7c1.6,1.4,3.7,3.7,5.4,7.6c1.7,3.9,4.3,8.9,4.3,8.9s-1.8,2.8-4.8,5.1
				c-3,2.3-5.8,2.4-5.8,2.4L77.2,69.4L77.2,69.4z"/>
			<path class="st22" d="M97.6,94.3c0,0-1.9,2.3-2.5,3.4c0,0,0.9-3.2,2.1-4.3L97.6,94.3L97.6,94.3z"/>
			<g>
				<path class="st2" d="M114.5,72.2L114.5,72.2l-0.6-0.7l0,0c-0.2-0.1-0.4-0.2-0.7-0.1l-7.8,1.3c-0.7,0.1-1.6,0.8-1.9,1.4l-7,15.3
					c-0.2,0.3-0.1,0.6,0,0.8l0,0l0.7,0.7l0,0c0.1,0.1,0.4,0.2,0.7,0.2l7.8-1.3c0.7-0.1,1.6-0.8,1.9-1.4c1.4-3,5.6-12.3,7-15.3
					C114.8,72.7,114.7,72.4,114.5,72.2L114.5,72.2z"/>
				<path class="st5" d="M97.1,90.1l7-15.3c0.3-0.7,1.1-1.3,1.9-1.4l7.8-1.3c0.7-0.1,1.1,0.3,0.8,1c-1.4,3-5.6,12.3-7,15.3
					c-0.3,0.7-1.1,1.3-1.9,1.4l-7.8,1.3C97.2,91.2,96.8,90.8,97.1,90.1z"/>
				<path class="st3" d="M105.1,73.8c-0.4,0.3-0.8,0.7-1,1.1l-7,15.3c-0.2,0.3-0.2,0.6,0,0.8l-0.6-0.7l0,0c-0.2-0.2-0.2-0.5,0-0.8
					l7-15.3c0.2-0.4,0.5-0.7,0.9-1L105.1,73.8L105.1,73.8z"/>
			</g>
			<path class="st20" d="M110.8,87.3c3.2-3.7,3.1-8.4,1.7-9.7l-1,2.1c0,0-4.9,1.1-7.3,0.9s-4.3-0.8-5-0.3c-1.4,1-1.8,5.1,2.2,6.6
				C104.7,88.3,110.8,87.3,110.8,87.3L110.8,87.3z"/>
		</g>
		<g id="Botom">
			<g>
				<path class="st20" d="M54,209.2c2.1,1.1,4.6,1,7.1,0l1-13.5l-8.1,1.1L54,209.2L54,209.2z"/>
				<path class="st20" d="M79,201.1c1.8,3.8,4.9,2.8,8.5,0.3l-0.6-13.6h-8.7L79,201.1L79,201.1z"/>
				<g>
					<path class="st5" d="M69.2,222c0.2,0.2,0.2,1.7-0.1,2.1c-0.3,0.4-1.8,1.8-4.7,2c-2.7,0.2-5.1-0.2-6.7-1.2
						c-1.6-1-2.3-2.1-2.5-3.6s0-3-0.7-4.2c-0.7-1.1-1.8-2.3-2-2.9c-0.5-1.3,0-3.1,0-3.1L69.2,222L69.2,222z"/>
					<path class="st3" d="M61.8,208.6c0,0.6,0.1,1.1,0.3,1.7c0.4,1.2,1,2.3,1.7,3.4c0.3,0.6,0.7,1.1,1.1,1.6c0.8,1,1.8,1.8,2.7,2.7
						s1.6,2.1,1.7,3.3c0.1,2.1-2.2,2.8-3.9,3.1c-1.9,0.3-3.9,0.2-5.7-0.3c-2-0.6-3.5-2.2-3.9-4.2c-0.1-0.6-0.1-1.2-0.1-1.8
						c-0.2-1.4-0.9-2.6-1.6-3.7c-0.5-0.6-1-1.3-1.3-2c-0.5-1.3-0.1-2.8,0.2-4.1c0.3-1.1,0.7-2.4,1-2.3c0,0.2,0,0.5,0.1,0.7
						c0.1,0.3,0.2,0.4,0.3,0.7c0.1,0.3,0.2,0.6,0.3,0.9c0.2,0.4,0.5,0.8,0.9,1c0-0.8,0-1.6,0.1-2.4c0-0.3,0-0.5,0.2-0.7
						s0.4-0.3,0.7-0.3c1.5-0.3,3-0.6,4.5-0.4c0.2,0,0.5,0.1,0.6,0.3c0.1,0.1,0.1,0.4,0.1,0.5C61.8,207.1,61.8,207.9,61.8,208.6
						L61.8,208.6z"/>
					<path class="st0" d="M64.1,214.1c-0.8-0.6-2.5-0.6-3.5-0.5c-1.2,0.1-2.2,0.6-2.7,1c-0.3,0.2-0.6,0.1-0.8-0.1l0,0
						c-0.3-0.3-0.2-0.7,0.1-0.9c0.6-0.4,1.7-1,3.1-1.1c2.4-0.2,3.1,0.2,3.1,0.2S64.3,213.4,64.1,214.1L64.1,214.1z"/>
					<path class="st0" d="M65.9,216.3c-1-0.6-2.9-0.5-3.9-0.4c-1.2,0.1-2.1,0.6-2.7,1c-0.3,0.2-0.6,0.1-0.8-0.1l0,0
						c-0.3-0.3-0.2-0.7,0.1-0.9c0.6-0.4,1.7-1.1,3.2-1.2c2.4-0.2,3,0.3,3,0.3S65.7,215.4,65.9,216.3L65.9,216.3z"/>
					<path class="st0" d="M59.2,210.2c1.6-0.2,2.3,0,3,0.3c0.4,0.2,0.7,0.9,0.4,1.1c-0.5-0.3-1.5-0.4-2.7-0.4
						c-0.8,0-1.8,0.4-2.6,0.7c-0.2,0.1-0.4,0.2-0.7,0.3c-0.3,0.2-0.7,0.1-0.8-0.2l0,0c-0.1-0.2,0-0.5,0.2-0.7
						C56.8,210.9,57.9,210.3,59.2,210.2L59.2,210.2z"/>
				</g>
				<g>
					<path class="st5" d="M101.7,209.8c0.2,0.5,0.2,1.3-0.1,1.9c-0.3,0.6-3.1,2.2-7,1.9s-6.5-1.8-8-2.8c-1.5-1-3-1.2-4.9-1.3
						c-1.9-0.1-4.4-1.1-4.9-2c-0.4-0.9,0.1-2.4,0.1-2.4L101.7,209.8L101.7,209.8z"/>
					<path class="st3" d="M86.1,197.8c0.3-0.1,0.7-0.3,1-0.4c0.2-0.1,0.4-0.1,0.6-0.1c0.3,0.1,0.3,0.4,0.4,0.6
						c0.1,0.5,0.2,1.2,0.4,1.7c0.2,0.4,0.7,0.8,1.1,1.1c0.9,0.8,2,1.4,3.1,2c1.3,0.7,2.5,1.2,3.8,1.8c1.3,0.6,3.1,1,4.2,1.7
						c1.5,1,1.7,3.6,0,4.6c-1.5,0.9-5.4,1.8-9.6,0.7c-2.3-0.6-4.8-3-7.7-3.3c-1.9-0.1-5.4-0.7-6.6-2.1c-0.4-0.6,0.2-2.6,0.6-4.4
						c0.5-1.9,0.7-4.8,1.4-4.7c0,0.6,0.6,1,0.9,1.5c0.3,0.5,0.5,1,0.7,1.5c0.2,0.5,0.5,1,1,1.3s1.1,0.3,1.5-0.1
						c0.6-0.6,0.2-1.6,0.6-2.3c0.3-0.5,0.8-0.7,1.3-0.9C85.2,198.1,85.6,198,86.1,197.8L86.1,197.8z"/>
					<path class="st0" d="M90.9,201.9c0,0-0.3-0.7-1.4-0.9c-0.8-0.2-2.4,0.5-3.3,1.2c-0.4,0.3-0.3,0.9,0.1,1.2l0,0
						c0.3,0.1,0.6,0.1,0.8-0.1C87.8,202.7,89.1,201.7,90.9,201.9L90.9,201.9z"/>
					<path class="st0" d="M93.6,203.3c0,0-0.6-0.9-1.6-0.9c0,0-2.2,0.1-3.6,1.4c-0.3,0.3-0.3,0.9,0.1,1.1l0,0
						c0.3,0.1,0.6,0.1,0.8-0.1C89.8,204.3,91.1,203.1,93.6,203.3z"/>
					<path class="st0" d="M96.5,204.7c0,0-0.6-0.8-1.7-0.8c0,0-2.1,0.1-3.5,1.4c-0.3,0.3-0.3,0.9,0.1,1.1l0,0
						c0.3,0.1,0.6,0.1,0.8-0.1C92.8,205.8,94,204.5,96.5,204.7L96.5,204.7z"/>
				</g>
				<path class="st3" d="M55,107.3c-0.5,14.8-0.5,50.6-0.5,50.6c-0.2,1.8-0.9,5.6-1.5,13c-0.8,9.6,0.9,30.7,0.9,30.7s3.5,1.8,7.7,0
					c0,0,4.6-30.1,6.1-39.6c1.3-8.3,3.8-27.1,3.8-27.1l2.9,24.4c0,0-0.7,5.8,0.3,12.2c0.7,4.4,3.7,22.3,3.7,22.3s4,1.2,8.6-0.3
					c0,0,0.3-31.1,0.4-35.1c0.1-4.6-2-54.8-2-54.8L55,107.3L55,107.3z"/>
				<path class="st5" d="M71.6,135l2.2-12.1c0,0,6.1-0.5,9.4-3.9c0,0-0.6,3.3-8.2,5.3l-2.2,12.3l1.7,22.8L71.6,135L71.6,135z"/>
			</g>
		</g>
		<g>
			<path class="st23" d="M84.7,80.8c-0.7-4.7-1.3-11.1-8.6-11.4l-9.5,0.4c-2.3,0.6-11.4,1.7-11.4,1.7L55,92.1c0,0-0.6,14.8-0.4,22.8
				c6.8,4.3,21.6,5.7,30.8-1.3C85.7,107,85.4,85.5,84.7,80.8z"/>
			<g>
				<g>
					<g>
						<path class="st3" d="M85.3,42.4c0.1-0.8-0.4-1.6-1.1-1.9c-0.7-0.4-1.5-0.4-2.3-0.2c0.2-1.2-0.7-2.3-1.7-2.8
							c-1.3-0.5-2.4-0.3-3.5,0.5c0.2-0.8-0.6-1.7-1.4-1.8c-0.8-0.2-1.7,0.1-2.5,0.5c-1.2,0.5-2.4,1-3.6,1.4
							c-2.1,0.8-4.4,1.2-6.3,2.4c-0.5,0.3-0.9,0.6-1.2,1c-0.4,0.6-0.6,1.4-0.5,2.1c0,0.3,0.1,0.5,0.1,0.7c-0.2-0.2-0.3-0.3-0.5-0.4
							c-0.9-0.5-2,0-2.5,0.9l2.3,1.1c-0.5,0.1-1.2,0.4-1.7,1c-1.2,1.3-0.4,5,1.2,8.7c0,0,1.7,6.7,2.3,7.8c0.6,1.1,1.8,1.4,1.8,1.4
							L64,60.9l17.1-1.5l-1.7-1.2c3.3-1.6,5.5-4.9,5.4-8.8c-0.1-1.6-0.5-3-1.2-4.3C84.4,44.3,85.2,43.4,85.3,42.4L85.3,42.4z"/>
						<path class="st20" d="M71.5,47.4c-1.6-0.2-3.1-0.4-4.7-0.7c-0.1,0-0.3,0-0.4,0c-0.1,0.1-0.1,0.2-0.1,0.2c-1,3-1,6.2-1.8,9.3
							c-0.1,0.3-0.3,0.8-0.6,0.8c-0.6,0.1-1-0.5-1.3-0.9c-0.2-0.3-0.4-0.7-0.6-1c-0.1-0.2-0.3-0.4-0.4-0.5c-0.7-0.7-2.9-1.5-3.9,0.8
							c-1,2.4,1.1,5.4,2.9,5.9c3,0.8,3.4-1.1,3.4-1.1l0.6,10.7c2.7,2.8,11.4,1.8,9.7-0.6L74.1,67c0,0,2.7,0.3,4,0.1
							c2.2-0.4,3.5-2.2,4.1-4.6c0.9-3.8,0.8-8.5,0.1-14.4c-0.1-0.7-0.3-1.4-0.5-2C78.7,47.9,75,47.8,71.5,47.4L71.5,47.4z"/>
					</g>
					<path class="st22" d="M74.1,67.1c0,0-4.9-0.8-6.7-1.7c-1.2-0.6-2.1-1.6-2.4-2.3c0,0,0.4,1.4,1.4,2.7c1.3,1.6,7.7,2.5,7.7,2.5
						L74.1,67.1L74.1,67.1z"/>
				</g>
				<g>
					<path class="st5" d="M73.4,55c0,0.6-0.4,1.1-1,1.1s-1.1-0.5-1.1-1.1c0-0.6,0.4-1.1,1-1.1S73.4,54.4,73.4,55z"/>
					<path class="st5" d="M71.9,50.6l-2.2,1c-0.3-0.6,0-1.3,0.7-1.6C71,49.7,71.7,50,71.9,50.6L71.9,50.6z"/>
					<path class="st24" d="M72.1,60.7l3.4,1.2c-0.3,1-1.3,1.5-2.3,1.2S71.8,61.7,72.1,60.7z"/>
					<path class="st22" d="M73.3,63c-0.6-0.2-1-0.7-1.2-1.3c0.2-0.1,0.4-0.1,0.6-0.1c0.8,0,1.5,0.7,1.5,1.5
						C73.9,63.2,73.6,63.1,73.3,63L73.3,63z"/>
					<path class="st5" d="M82.1,51.5l-2.2-0.8c0.2-0.6,0.9-0.9,1.5-0.7C82,50.2,82.3,50.9,82.1,51.5z"/>
					<path class="st5" d="M81.3,55c0,0.6-0.4,1.1-1,1.1c-0.6,0-1.1-0.5-1.1-1.1c0-0.6,0.4-1.1,1-1.1C80.8,53.9,81.3,54.4,81.3,55z"
						/>
					<path class="st22" d="M76.2,54.6l0.2,5.8l3.2-0.9l-3-4.9C76.5,54.6,76.3,54.6,76.2,54.6z"/>
				</g>
			</g>
			<path class="st4" d="M85.9,86.8c-0.3-6-0.7-11.3-3-14.1s-3.4-3.4-8.7-3.3v0.4c0.6,0.1,1.2,0.4,1.5,0.9c1,1.5,2.9,4.8,4.1,9.1
				c1.5,5.8,1.8,18.9,1.9,25.9c0.1,7,0,12.7,0,12.7s3.6-0.8,4.7-2.6C86.3,115.6,86.1,92.8,85.9,86.8L85.9,86.8z"/>
			<path class="st9" d="M85.9,86.8c-0.3-6-0.7-11.3-3-14.1s-3.4-3.4-8.7-3.3v0.4c0.6,0.1,1.2,0.4,1.5,0.9c1,1.5,2.9,4.8,4.1,9.1
				c1.5,5.8,1.8,18.9,1.9,25.9c0.1,7,0,12.7,0,12.7s3.6-0.8,4.7-2.6C86.3,115.6,86.1,92.8,85.9,86.8L85.9,86.8z"/>
			<path class="st4" d="M67.5,77.2c-0.8-3.2-2.3-5.3-3-6.9l-6.6,0.9c-2.4,1.1-5.6,3.8-5.4,6.5l1.7,19.7L53.8,116
				c3.8,5.9,15.1,4.8,15.1,4.8s0.3-8.4,0-24.6C68.6,87.1,68.5,81.3,67.5,77.2L67.5,77.2z"/>
			<path class="st9" d="M67.5,77.2c-0.8-3.2-2.3-5.3-3-6.9l-6.6,0.9c-2.4,1.1-5.6,3.8-5.4,6.5l1.7,19.7L53.8,116
				c3.8,5.9,15.1,4.8,15.1,4.8s0.3-8.4,0-24.6C68.6,87.1,68.5,81.3,67.5,77.2L67.5,77.2z"/>
			<path class="st3" d="M67.8,78.8c-0.4-2.1-0.7-5.9-1-6.7c-0.4-0.8-2.3-2.3-2.4-3.3l0-0.7c0,0-0.8,0.1-1.7,0.9
				c-0.6,0.6-2.5,1.8-2.5,1.8s0.2,1.8,1.4,3.5c1.1,1.6,2.6,2.6,2.8,2.2c0.2-0.4,0.2-1,0.6-1.9c0.5-1.1,0.6-1.6,1.2-0.5
				C66.6,75,67.8,78.8,67.8,78.8L67.8,78.8z"/>
			<path class="st3" d="M79.2,77.6c0.5,1.7-0.9-6-1.8-7.4s-3.3-1.9-3.3-1.9l0.1,1.7c0,0,0.8,0.1,1.5,1
				C76.3,71.8,78.4,75.3,79.2,77.6L79.2,77.6z"/>
			<g>
				<path class="st4" d="M68.1,80.4c-4.5,0.4-9.5,1.2-15.1,2.4l0,0.6c5.6-1.2,10.7-1.9,15.1-2.4C68.1,80.8,68.1,80.6,68.1,80.4
					L68.1,80.4z"/>
				<path class="st4" d="M85.4,80.3c-1.7-0.2-3.5-0.4-5.6-0.5c0.1,0.2,0.1,0.4,0.1,0.6c2,0.1,3.9,0.3,5.5,0.5
					C85.4,80.6,85.4,80.5,85.4,80.3L85.4,80.3z"/>
			</g>
		</g>
		<path class="st20" d="M40.1,97.7c7.1-18,8.6-23.6,13.6-25.7c1.9-0.8,4.1-0.9,4.1-0.9c1.2,2.3,3,11-2.9,17c0,0-4.3,10.6-6.5,15.6
			c0.1,5-0.3,9.2,1.2,16c0.2,0.7,1,1.9,1.7,2.3c1.8,1,2.1,2.1,3.4,3.4c1,1,2,1.2,1.8,1.6c-0.2,0.4-1,1.1-2.3,0.8
			c-0.7-0.2-1.7-0.9-2.8-1.5c-0.2,0.2,1.5,2.9,3.3,4.8c2.6,2.9,3.2,5-2,5.2c-3.2,0.1-6.7-2.5-8.9-9c-0.4-1.3-0.9-3.1-1.3-4.9
			c-0.3-0.8-2.7-12.9-3.2-16.6C38.8,101.2,39,100.6,40.1,97.7L40.1,97.7z"/>
		<g>
			<path class="st4" d="M58.8,71.2c0,0-3.5-0.6-6.3,1.1s-3.8,3.2-7.2,11s-4,9.4-4,9.4s1.5,4.5,10.5,5l4-9.2c0,0,3.4-4.2,3.7-9.3
				C59.8,74,58.8,71.2,58.8,71.2L58.8,71.2z"/>
			<path class="st21" d="M58.8,71.2c0,0-3.5-0.6-6.3,1.1s-3.8,3.2-7.2,11s-4,9.4-4,9.4s1.5,4.5,10.5,5l4-9.2c0,0,3.4-4.2,3.7-9.3
				C59.8,74,58.8,71.2,58.8,71.2L58.8,71.2z"/>
		</g>
	</g>
</g>
</svg>
