<svg width="146" height="59" viewBox="0 0 146 59" fill="none" xmlns="http://www.w3.org/2000/svg">
<path d="M21.75 25.1578C20.4 26.0576 18.9 26.6574 17.4 26.9573C15.6 27.4072 13.6501 27.5571 11.85 27.5571C9.75005 27.5571 7.65005 27.2572 5.55005 26.6574C4.05005 26.2075 2.70005 25.3078 1.65005 24.1081C0.750045 23.0584 0.300049 21.7088 0.300049 20.3592C0.300049 19.1595 0.60005 17.9598 1.35005 16.9101C2.10005 15.8604 3.15005 15.1106 4.35005 14.6608C3.45005 14.2109 2.70005 13.4611 2.10005 12.5613C1.65005 11.6616 1.35005 10.6119 1.35005 9.71214C1.35005 8.36252 1.80005 7.16286 2.55005 6.11315C3.45005 4.91349 4.80005 4.01374 6.30005 3.56387C8.25005 2.81408 10.2 2.51416 12.3 2.51416C13.8 2.51416 15.45 2.66412 16.95 2.96403C18.3 3.26395 19.65 3.71382 20.85 4.1637L19.2 8.51248C17.1 7.46277 14.85 7.0129 12.45 7.0129C10.65 7.0129 9.30005 7.31282 8.40005 7.76269C7.50005 8.21256 7.05005 8.96235 7.05005 10.0121C7.05005 10.7618 7.35005 11.5116 7.95005 11.9615C8.85005 12.4114 9.75005 12.7113 10.8 12.5613H17.4V16.9101H10.5C9.30005 16.9101 8.25005 17.0601 7.20005 17.6599C6.45005 18.1098 6.00005 18.8596 6.00005 19.7593C6.00005 20.809 6.60005 21.5588 7.50005 22.0087C8.55005 22.6085 10.05 22.7585 12 22.7585C13.5 22.7585 14.85 22.6085 16.35 22.1586C17.7001 21.8587 18.9 21.2589 19.95 20.5091L21.75 25.1578Z" fill="#064466"/>
<path d="M25.6501 15.4106H31.05C32.25 15.4106 33.1501 16.3104 33.1501 17.5101C33.1501 18.7097 32.25 19.6095 31.05 19.6095H25.6501C24.4501 19.6095 23.55 18.7097 23.55 17.5101C23.55 16.3104 24.4501 15.4106 25.6501 15.4106Z" fill="#064466"/>
<path d="M54.2999 9.8621C52.1999 8.66244 49.95 7.91265 47.7 7.61273V27.4072H42.1499V7.46277C39.7499 7.76269 37.4999 8.51248 35.3999 9.71214L33.45 5.51332C35.1 4.46361 36.8999 3.71382 38.8499 3.26395C40.7999 2.81408 42.7499 2.51416 44.8499 2.51416C46.9499 2.51416 48.8999 2.81408 50.8499 3.26395C52.7999 3.71382 54.5999 4.46361 56.2499 5.51332L54.2999 9.8621Z" fill="#064466"/>
<path d="M68.4001 22.7585C69.1501 22.4586 69.9001 22.0087 70.5001 21.4089L73.3501 24.558C71.5501 26.5075 69.0001 27.5572 65.7001 27.5572C63.7501 27.5572 61.8001 27.1073 60.1501 26.3575C58.6501 25.6077 57.3001 24.408 56.4001 22.9085C55.5001 21.4089 55.05 19.7594 55.05 17.9599C55.05 16.1604 55.5001 14.5108 56.4001 13.0112C57.3001 11.5117 58.5001 10.312 60.0001 9.56221C61.5001 8.66246 63.3001 8.36255 65.1001 8.36255C66.7501 8.36255 68.4001 8.66246 69.9001 9.41225C71.4001 10.162 72.6001 11.2117 73.3501 12.7113C74.2501 14.2109 74.7001 16.0104 74.7001 17.8099L60.9001 20.5091C61.2001 21.4089 61.9501 22.1587 62.7001 22.6086C63.6001 23.0584 64.6501 23.3583 65.8501 23.3583C66.7501 23.2084 67.6501 23.0584 68.4001 22.7585ZM61.8 13.761C60.9 14.8107 60.4501 16.0104 60.4501 17.36L69.4501 15.5605C69.1501 14.6608 68.7 13.761 67.8 13.3112C67.05 12.7113 66.0001 12.4114 64.9501 12.4114C63.9001 12.4114 62.7 12.8613 61.8 13.761Z" fill="#064466"/>
<path d="M82.0499 26.3577C77.3999 23.9584 75.6 18.4099 78 13.7612C78.9 11.9617 80.3999 10.6121 82.0499 9.71236C83.6999 8.81261 85.5 8.5127 87.45 8.5127C89.25 8.5127 91.0499 8.96257 92.5499 9.71236C94.0499 10.4621 95.1 11.6618 95.7 13.1614L91.5 15.4108C90.75 13.7612 89.0999 12.8615 87.2999 12.8615C85.9499 12.8615 84.75 13.3113 83.85 14.2111C82.05 16.3105 82.05 19.6096 83.85 21.709C84.75 22.6087 86.0999 23.0586 87.2999 23.0586C89.0999 23.0586 90.75 22.1589 91.5 20.5093L95.7 22.7587C95.1 24.2583 93.8999 25.4579 92.5499 26.2077C91.0499 27.1075 89.25 27.5574 87.45 27.4074C85.5 27.5574 83.6999 27.1075 82.0499 26.3577Z" fill="#064466"/>
<path d="M115.5 10.462C116.85 11.8116 117.6 13.9111 117.6 16.6103V27.2573H112.2V17.51C112.2 16.0105 111.9 14.9608 111.3 14.211C110.55 13.4612 109.5 13.0113 108.45 13.1613C107.25 13.1613 106.05 13.6111 105.15 14.3609C104.4 15.2607 103.95 16.4603 103.95 18.1099V27.2573H98.55V1.6145H103.95V10.612C104.7 9.86219 105.6 9.26236 106.5 8.96244C107.55 8.51257 108.75 8.36261 109.8 8.36261C112.05 8.21265 114 8.96244 115.5 10.462Z" fill="#064466"/>
<path d="M4.35 57.8488C2.85 57.399 1.35 56.7991 0 55.8994L1.95 51.7006C3 52.4504 4.35 53.2002 5.7 53.5001C7.05 53.9499 8.55 54.2499 10.05 54.2499C11.7 54.2499 12.75 53.9499 13.65 53.5001C14.4 53.2002 14.85 52.4504 14.85 51.5506C14.85 50.9508 14.55 50.5009 14.25 50.051C13.8 49.6012 13.2 49.3012 12.45 49.1513C11.7 48.8514 10.8 48.7014 9.6 48.4015C8.1 48.1016 6.6 47.6517 5.1 47.0519C3.9 46.602 2.85 45.8522 2.1 44.9525C1.2 43.9028 0.749998 42.5531 0.899998 41.0536C0.899998 39.7039 1.35 38.3543 2.1 37.3046C3 36.1049 4.2 35.0552 5.55 34.6054C7.35 33.8556 9.3 33.5557 11.1 33.5557C12.6 33.5557 14.1 33.7056 15.6 34.1555C16.95 34.4554 18.3 35.0552 19.5 35.805L17.7 40.0039C15.6 38.8042 13.35 38.2044 10.95 38.0544C9.45 38.0544 8.25 38.3543 7.5 38.8042C6.75 39.2541 6.3 40.0039 6.45 40.7536C6.45 41.6534 6.9 42.2532 7.8 42.5531C9 43.153 10.35 43.4529 11.7 43.7528C13.2 44.0527 14.7 44.5026 16.2 45.1024C17.4 45.5523 18.45 46.3021 19.2 47.2018C20.1 48.2515 20.55 49.6012 20.4 51.1007C20.4 52.4504 19.95 53.8 19.2 54.8497C18.3 56.0494 17.1 56.9491 15.75 57.5489C13.95 58.2987 12 58.5986 10.05 58.5986C7.95 58.5986 6.15 58.2987 4.35 57.8488Z" fill="#03BA85"/>
<path d="M42.3 39.554V58.1487H37.2001V55.8994C36.4501 56.6492 35.5501 57.3989 34.6501 57.6989C33.6001 58.2987 32.5501 58.4487 31.5001 58.4487C29.1001 58.4487 27.1501 57.6989 25.6501 56.3492C24.3001 54.9996 23.55 52.9002 23.55 50.051V39.554H28.9501V49.3012C28.9501 52.3004 30.1501 53.8 32.7001 53.8C33.9001 53.8 34.9501 53.3501 35.8501 52.6003C36.6001 51.7005 37.05 50.5009 37.05 48.8513V39.7039H42.3V39.554Z" fill="#03BA85"/>
<path d="M49.0499 57.8487C47.8499 57.5488 46.65 57.0989 45.45 56.3491L47.2499 52.4502C48.1499 53.05 49.1999 53.4999 50.2499 53.7998C51.2999 54.0997 52.5 54.2497 53.7 54.3997C55.95 54.3997 57.1499 53.7998 57.1499 52.7501C57.1499 52.1503 56.6999 51.7004 56.2499 51.5505C55.3499 51.2505 54.2999 51.1006 53.3999 50.9506C52.0499 50.8007 50.8499 50.5008 49.6499 50.2008C48.5999 49.9009 47.8499 49.3011 47.0999 48.5513C46.3499 47.6516 45.8999 46.4519 46.0499 45.2522C46.0499 44.0526 46.3499 43.0029 47.0999 42.1031C47.8499 41.2034 48.8999 40.4536 50.0999 40.0037C51.5999 39.4039 53.0999 39.2539 54.7499 39.2539C56.0999 39.2539 57.4499 39.4039 58.6499 39.7038C59.8499 40.0037 60.9 40.3036 61.95 40.9034L59.9999 44.8024C58.3499 43.9026 56.5499 43.4527 54.5999 43.4527C53.6999 43.4527 52.7999 43.6027 52.0499 43.9026C51.5999 44.0526 51.1499 44.6524 51.1499 45.1023C51.1499 45.7021 51.5999 46.152 52.0499 46.3019C52.9499 46.6018 53.9999 46.9018 55.0499 46.9018C56.2499 47.0517 57.5999 47.3516 58.7999 47.6515C59.6999 47.9515 60.5999 48.5513 61.3499 49.3011C62.0999 50.2008 62.5499 51.2505 62.3999 52.4502C62.3999 53.4999 62.0999 54.6996 61.3499 55.5993C60.5999 56.649 59.5499 57.2489 58.3499 57.6987C56.8499 58.2986 55.1999 58.4485 53.5499 58.4485C52.0499 58.4485 50.5499 58.2986 49.0499 57.8487Z" fill="#03BA85"/>
<path d="M76.95 57.2488C76.35 57.6987 75.7499 57.9986 74.9999 58.1485C74.2499 58.2985 73.3499 58.4484 72.5999 58.4484C70.3499 58.4484 68.6999 57.8486 67.4999 56.7989C66.2999 55.5993 65.7 53.9497 65.7 51.8503V35.5049H71.0999V40.0036H75.7499V44.2024H71.0999V51.7003C71.0999 52.3002 71.25 53.05 71.7 53.4998C72.15 53.9497 72.7499 54.2496 73.3499 54.0997C74.0999 54.0997 74.8499 53.7997 75.5999 53.3499L76.95 57.2488Z" fill="#03BA85"/>
<path d="M98.25 39.5538V58.1486H93.15V56.0491C91.8 57.6987 89.85 58.4485 87.3 58.4485C85.65 58.4485 84 57.9986 82.5 57.2488C81.15 56.499 79.95 55.2994 79.2 53.9497C77.55 50.8006 77.55 47.0517 79.2 43.9025C79.95 42.5529 81.15 41.3533 82.5 40.6035C84 39.8537 85.65 39.4038 87.3 39.4038C89.7 39.4038 91.5 40.1536 92.85 41.6532V39.7037L98.25 39.5538ZM91.65 52.6001C93.45 50.3507 93.45 47.2016 91.65 45.1022C89.7 43.3027 86.7 43.3027 84.9 45.1022C83.1 47.3516 83.1 50.5007 84.9 52.6001C86.7 54.5496 89.7 54.5496 91.65 52.6001Z" fill="#03BA85"/>
<path d="M130.5 41.3534C131.85 42.703 132.6 44.8024 132.6 47.5017V58.1487H127.2V48.4014C127.2 46.9018 126.9 45.8521 126.3 45.1023C125.55 44.3525 124.5 43.9027 123.45 44.0526C122.25 44.0526 121.05 44.5025 120.15 45.2523C119.4 46.152 118.95 47.3517 118.95 49.0012V58.1487H113.55V39.5539H118.65V41.8033C119.4 41.0535 120.3 40.4536 121.35 40.0038C122.4 39.5539 123.6 39.4039 124.8 39.4039C127.05 39.254 129 40.0038 130.5 41.3534Z" fill="#03BA85"/>
<path d="M103.5 36.1047C102.3 35.055 102.3 33.1056 103.35 31.9059L103.5 31.7559C104.1 31.1561 105 30.8562 105.9 30.8562C106.8 30.8562 107.7 31.1561 108.3 31.7559C108.9 32.2058 109.2 32.9556 109.2 33.8554C109.2 34.7551 108.9 35.5049 108.3 36.1047C107.7 36.7046 106.8 37.0045 105.9 37.0045C105 37.0045 104.1 36.7046 103.5 36.1047ZM103.2 39.5538H108.6V58.1485H103.2V39.5538Z" fill="#03BA85"/>
<path d="M139.95 31.9059C139.8 31.9059 139.5 31.9059 139.35 31.9059C138.6 31.7559 138 31.3061 137.55 30.7062C137.1 30.1064 136.95 29.3566 137.1 28.6068C137.4 27.1072 138.9 26.2075 140.4 26.5074C141.15 26.6574 141.75 27.1072 142.2 27.7071C142.65 28.3069 142.8 29.0567 142.65 29.8065C142.5 30.5563 142.05 31.1561 141.45 31.606C141 31.7559 140.55 31.9059 139.95 31.9059ZM139.95 28.007C139.35 28.007 138.9 28.4569 138.75 28.9067C138.75 29.2067 138.75 29.5066 138.9 29.8065C139.05 30.1064 139.35 30.2564 139.65 30.2564C139.95 30.2564 140.25 30.2564 140.55 30.1064C140.85 29.9564 141 29.6565 141 29.3566C141 29.0567 141 28.7568 140.85 28.4569C140.7 28.157 140.4 28.007 140.1 28.007C140.1 28.007 140.1 28.007 139.95 28.007Z" fill="#064466"/>
<path d="M141.75 0.864718C141.3 0.114929 140.4 -0.184987 139.65 0.114929C136.8 0.864718 134.1 2.3643 131.85 4.16379C130.2 5.36346 128.7 6.86304 127.5 8.51257C126.45 9.8622 125.55 11.2118 124.8 12.7114C123.15 16.0105 122.55 19.7594 122.55 23.3584C122.55 25.0079 122.7 26.8074 123 28.457C123.3 29.6566 123.6 30.7063 124.05 31.906H105.9C104.7 31.906 103.8 32.9557 104.1 34.1554C104.25 35.0551 105.15 35.655 106.05 35.655H128.1C129.3 35.655 130.2 34.7552 130.2 33.5556C130.05 32.5058 129 32.056 128.4 31.3062C127.65 30.4064 127.2 29.2068 127.05 28.1571C126.45 25.1579 126.75 21.7089 127.35 18.7097C127.8 16.7603 128.4 14.8108 129.3 13.0113C129.75 12.1116 130.2 11.2118 130.8 10.462C132.15 8.66253 134.85 5.96329 139.2 4.31375C140.55 7.01299 142.95 13.9111 140.85 22.9085C139.95 22.6086 139.05 22.0088 138.45 21.109C136.5 18.5598 136.65 14.3609 136.8 12.5614C136.8 11.9616 136.5 11.5117 135.9 11.3618C135.3 11.2118 134.7 11.6617 134.7 12.2615C134.55 14.3609 134.4 19.1596 136.8 22.3087C138.15 24.1082 140.55 25.4578 142.8 25.3079C143.55 25.3079 144.3 24.708 144.45 23.9582C147.9 10.462 141.9 1.31459 141.75 0.864718Z" fill="url(#paint0_linear_69_624)"/>
<path d="M105.9 37.7544C103.65 37.7544 102 35.9549 102 33.8554C102 31.6061 103.8 29.9565 105.9 29.9565C108 29.9565 109.8 31.756 109.8 33.8554C109.95 35.9549 108.15 37.7544 105.9 37.7544ZM105.9 32.5058C105.15 32.5058 104.55 33.1057 104.55 33.8554C104.55 34.6052 105.15 35.2051 105.9 35.2051C106.65 35.2051 107.25 34.6052 107.25 33.8554C107.25 33.1057 106.65 32.5058 105.9 32.5058Z" fill="#064466"/>
<defs>
<linearGradient id="paint0_linear_69_624" x1="104.144" y1="17.8598" x2="145.5" y2="17.8598" gradientUnits="userSpaceOnUse">
<stop stop-color="white"/>
<stop offset="0.2203" stop-color="#03BA85"/>
<stop offset="1" stop-color="#064466"/>
</linearGradient>
</defs>
</svg>
