<?xml version="1.0" encoding="utf-8"?>
<!-- Generator: Adobe Illustrator 24.2.0, SVG Export Plug-In . SVG Version: 6.00 Build 0)  -->
<svg version="1.1" id="Capa_1" xmlns="http://www.w3.org/2000/svg" xmlns:xlink="http://www.w3.org/1999/xlink" x="0px" y="0px"
	 viewBox="0 0 124 34" style="enable-background:new 0 0 124 34;" xml:space="preserve">
<style type="text/css">
	.st0{fill:#FFFFFF;}
	.st1{fill:url(#SVGID_1_);}
	.st2{fill:url(#SVGID_2_);}
	.st3{fill:url(#SVGID_3_);}
	.st4{fill:url(#SVGID_4_);}
	.st5{fill:url(#SVGID_5_);}
	.st6{fill:url(#SVGID_6_);}
	.st7{fill:url(#SVGID_7_);}
	.st8{fill:url(#SVGID_8_);}
	.st9{fill:url(#SVGID_9_);}
	.st10{fill:url(#SVGID_10_);}
	.st11{fill:url(#SVGID_11_);}
</style>
<g>
	<g>
		<path class="st0" d="M27.1,7.3c-1.9-0.9-4-1.5-6.1-1.9c-0.3,0.5-0.6,1.1-0.8,1.6c-2.3-0.3-4.6-0.3-6.8,0c-0.2-0.5-0.5-1.1-0.8-1.6
			c-2.2,0.4-4.2,1-6.1,1.9C2.6,13,1.5,18.6,2,24.1c2.6,1.9,5.1,3,7.5,3.8c0.6-0.8,1.1-1.7,1.6-2.6c-0.9-0.3-1.7-0.7-2.5-1.2
			c0.2-0.2,0.4-0.3,0.6-0.5c4.9,2.2,10.2,2.2,15,0c0.2,0.2,0.4,0.3,0.6,0.5c-0.8,0.5-1.7,0.9-2.5,1.2c0.5,0.9,1,1.8,1.6,2.6
			c2.4-0.8,5-1.9,7.5-3.8C32.1,17.7,30.5,12.2,27.1,7.3z M11.9,20.7c-1.5,0-2.7-1.3-2.7-3c0-1.6,1.2-3,2.7-3c1.5,0,2.7,1.3,2.7,3
			C14.5,19.4,13.3,20.7,11.9,20.7z M21.7,20.7c-1.5,0-2.7-1.3-2.7-3c0-1.6,1.2-3,2.7-3c1.5,0,2.7,1.3,2.7,3
			C24.4,19.4,23.2,20.7,21.7,20.7z"/>
		<linearGradient id="SVGID_1_" gradientUnits="userSpaceOnUse" x1="0.9231" y1="16.6556" x2="32.6315" y2="16.6556">
			<stop  offset="0.2203" style="stop-color:#03BA85"/>
			<stop  offset="1" style="stop-color:#064466"/>
		</linearGradient>
		<path class="st1" d="M21,5.4c2.1,0.4,4.2,1,6.1,1.9c3.4,4.9,5,10.5,4.4,16.9c-2.6,1.9-5.1,3-7.5,3.8c-0.6-0.8-1.1-1.7-1.6-2.6
			c0.9-0.3,1.7-0.7,2.5-1.2c-0.2-0.2-0.4-0.3-0.6-0.5c-2.4,1.1-5,1.7-7.5,1.7s-5.1-0.6-7.5-1.7c-0.2,0.2-0.4,0.3-0.6,0.5
			c0.8,0.5,1.7,0.9,2.5,1.2c-0.5,0.9-1,1.8-1.6,2.6C7.1,27.1,4.6,26,2,24.1C1.5,18.6,2.6,13,6.5,7.3c1.9-0.9,4-1.5,6.1-1.9
			c0.3,0.5,0.6,1.1,0.8,1.6c1.1-0.2,2.3-0.2,3.4-0.2S19,6.8,20.2,7C20.4,6.5,20.7,5.8,21,5.4 M21.7,20.7c1.5,0,2.7-1.3,2.7-3
			c0-1.6-1.2-3-2.7-3c-1.5,0-2.7,1.3-2.7,3C19,19.4,20.2,20.7,21.7,20.7 M11.9,20.7c1.5,0,2.7-1.3,2.7-3c0-1.6-1.2-3-2.7-3
			c-1.5,0-2.7,1.3-2.7,3C9.2,19.4,10.4,20.7,11.9,20.7 M13.1,4.3l-0.7,0.1c-2.2,0.4-4.4,1-6.4,2L5.8,6.5L5.6,6.7
			c-3.7,5.4-5.2,11.2-4.6,17.5l0,0.4l0.4,0.3c2.4,1.8,5,3,7.8,3.9L10,29l0.4-0.6c0.6-0.9,1.2-1.8,1.7-2.7l0-0.1
			c1.5,0.4,3.1,0.6,4.7,0.6c1.6,0,3.1-0.2,4.6-0.6l0,0.1c0.5,1,1.1,1.9,1.7,2.7l0.4,0.6l0.7-0.2c2.9-0.9,5.4-2.2,7.8-3.9l0.4-0.3
			l0-0.4c0.6-6.3-0.9-12.2-4.6-17.5l-0.2-0.2l-0.3-0.1c-2.1-0.9-4.2-1.6-6.4-2l-0.7-0.1l-0.3,0.6c-0.2,0.3-0.4,0.7-0.5,1
			c-0.9-0.1-1.9-0.2-2.8-0.2c-0.9,0-1.9,0.1-2.8,0.2c-0.2-0.4-0.4-0.7-0.5-1L13.1,4.3L13.1,4.3z M21.7,19.7c-0.9,0-1.7-0.9-1.7-2
			c0-1.1,0.8-2,1.7-2c0.4,0,0.8,0.2,1.1,0.5c0.4,0.4,0.6,0.9,0.6,1.5C23.4,18.8,22.6,19.7,21.7,19.7L21.7,19.7z M11.9,19.7
			c-0.9,0-1.7-0.9-1.7-2c0-1.1,0.8-2,1.7-2c0.4,0,0.8,0.2,1.1,0.5c0.4,0.4,0.6,0.9,0.6,1.5C13.5,18.8,12.8,19.7,11.9,19.7L11.9,19.7
			z"/>
	</g>
	<linearGradient id="SVGID_2_" gradientUnits="userSpaceOnUse" x1="41.9021" y1="15.8065" x2="55.3718" y2="15.8065">
		<stop  offset="0.2203" style="stop-color:#03BA85"/>
		<stop  offset="1" style="stop-color:#064466"/>
	</linearGradient>
	<path class="st2" d="M41.9,10.1h6.4c1.5,0,2.8,0.2,3.9,0.7c1.1,0.5,1.9,1.1,2.4,2c0.5,0.9,0.8,1.8,0.8,2.9c0,1.1-0.3,2.1-0.8,2.9
		c-0.6,0.9-1.4,1.6-2.5,2.1c-1.1,0.5-2.5,0.8-4.2,0.8h-5.9V10.1z M47.8,18.6c1,0,1.8-0.3,2.4-0.8c0.6-0.5,0.8-1.2,0.8-2.1
		c0-0.8-0.3-1.5-0.8-2C49.7,13.2,49,13,48,13h-2v5.6H47.8z"/>
	<linearGradient id="SVGID_3_" gradientUnits="userSpaceOnUse" x1="62.9258" y1="16.7231" x2="73.0308" y2="16.7231">
		<stop  offset="0.2203" style="stop-color:#03BA85"/>
		<stop  offset="1" style="stop-color:#064466"/>
	</linearGradient>
	<path class="st3" d="M65.3,21.5c-0.9-0.2-1.7-0.6-2.4-1v-2.7c0.5,0.4,1.2,0.8,2.1,1c0.9,0.3,1.8,0.4,2.6,0.4c0.4,0,0.7,0,0.9-0.2
		c0.2-0.1,0.3-0.2,0.3-0.4c0-0.2-0.1-0.3-0.2-0.4s-0.3-0.2-0.6-0.3l-2-0.4c-1.1-0.3-1.9-0.6-2.4-1.1C63.2,16,63,15.4,63,14.7
		c0-0.6,0.2-1.2,0.6-1.7c0.4-0.5,1-0.8,1.8-1.1c0.8-0.3,1.7-0.4,2.7-0.4c0.9,0,1.8,0.1,2.5,0.3c0.8,0.2,1.4,0.5,1.9,0.8v2.6
		c-0.5-0.3-1.1-0.5-1.8-0.7c-0.7-0.2-1.4-0.3-2.1-0.3c-1,0-1.5,0.2-1.5,0.5c0,0.2,0.1,0.3,0.2,0.4c0.2,0.1,0.5,0.2,0.9,0.3l1.6,0.3
		c1.1,0.2,1.9,0.5,2.4,1c0.5,0.5,0.8,1.1,0.8,2.1c0,1-0.4,1.8-1.3,2.4c-0.9,0.6-2.1,0.9-3.7,0.9C67.1,21.9,66.2,21.7,65.3,21.5z"/>
	<linearGradient id="SVGID_4_" gradientUnits="userSpaceOnUse" x1="74.2634" y1="16.7011" x2="84.6686" y2="16.7011">
		<stop  offset="0.2203" style="stop-color:#03BA85"/>
		<stop  offset="1" style="stop-color:#064466"/>
	</linearGradient>
	<path class="st4" d="M77.1,21.2c-0.9-0.5-1.7-1.1-2.1-1.9c-0.5-0.8-0.7-1.7-0.7-2.7c0-1,0.2-1.9,0.7-2.6c0.5-0.8,1.2-1.4,2.2-1.8
		c0.9-0.4,2.1-0.7,3.4-0.7c1.6,0,3,0.3,4.1,1v3c-0.4-0.3-0.8-0.5-1.3-0.6c-0.5-0.2-1.1-0.2-1.6-0.2c-1,0-1.8,0.2-2.4,0.6
		c-0.6,0.4-0.9,0.9-0.9,1.5c0,0.6,0.3,1.1,0.8,1.4c0.6,0.4,1.4,0.6,2.4,0.6c0.5,0,1.1-0.1,1.6-0.2c0.5-0.2,1-0.3,1.4-0.6v2.9
		c-1.2,0.7-2.6,1.1-4.2,1.1C79.2,21.9,78,21.6,77.1,21.2z"/>
	<linearGradient id="SVGID_5_" gradientUnits="userSpaceOnUse" x1="86.0065" y1="16.7011" x2="98.4852" y2="16.7011">
		<stop  offset="0.2203" style="stop-color:#03BA85"/>
		<stop  offset="1" style="stop-color:#064466"/>
	</linearGradient>
	<path class="st5" d="M88.9,21.2c-0.9-0.5-1.7-1.1-2.2-1.9c-0.5-0.8-0.8-1.7-0.8-2.7c0-1,0.3-1.9,0.8-2.6c0.5-0.8,1.2-1.4,2.1-1.8
		c0.9-0.4,2.1-0.7,3.3-0.7c1.3,0,2.4,0.2,3.3,0.7c0.9,0.4,1.7,1,2.1,1.8c0.5,0.8,0.7,1.6,0.7,2.6c0,1-0.2,1.9-0.7,2.7
		c-0.5,0.8-1.2,1.4-2.1,1.9c-0.9,0.5-2.1,0.7-3.3,0.7C91,21.9,89.9,21.6,88.9,21.2z M93.9,18.3c0.4-0.4,0.6-0.9,0.6-1.6
		c0-0.7-0.2-1.2-0.6-1.6c-0.4-0.4-0.9-0.6-1.6-0.6c-0.7,0-1.2,0.2-1.7,0.6C90.2,15.5,90,16,90,16.7c0,0.7,0.2,1.2,0.6,1.6
		c0.4,0.4,0.9,0.6,1.7,0.6C92.9,18.9,93.5,18.7,93.9,18.3z"/>
	<linearGradient id="SVGID_6_" gradientUnits="userSpaceOnUse" x1="100.1819" y1="16.6329" x2="108.5305" y2="16.6329">
		<stop  offset="0.2203" style="stop-color:#03BA85"/>
		<stop  offset="1" style="stop-color:#064466"/>
	</linearGradient>
	<path class="st6" d="M108.5,12.1v3.5c-0.4-0.3-1-0.4-1.6-0.4c-0.9,0-1.5,0.3-2,0.8c-0.5,0.5-0.7,1.4-0.7,2.5v3h-4V12h3.9v3
		c0.2-1.1,0.6-1.9,1.1-2.5c0.5-0.5,1.1-0.8,1.9-0.8C107.6,11.7,108.1,11.9,108.5,12.1z"/>
	<linearGradient id="SVGID_7_" gradientUnits="userSpaceOnUse" x1="109.447" y1="15.8069" x2="122.0464" y2="15.8069">
		<stop  offset="0.2203" style="stop-color:#03BA85"/>
		<stop  offset="1" style="stop-color:#064466"/>
	</linearGradient>
	<path class="st7" d="M122,9.7v11.8h-4v-2.1c-0.3,0.8-0.9,1.4-1.5,1.8c-0.7,0.4-1.5,0.6-2.6,0.6c-0.9,0-1.7-0.2-2.4-0.7
		c-0.7-0.4-1.2-1.1-1.6-1.8c-0.4-0.8-0.5-1.7-0.5-2.6c0-1,0.2-1.9,0.6-2.7c0.4-0.8,1-1.4,1.7-1.9c0.7-0.5,1.5-0.7,2.5-0.7
		c1.9,0,3.2,0.8,3.8,2.5V9.7H122z M117.4,18.2c0.4-0.4,0.6-0.9,0.6-1.5c0-0.6-0.2-1.1-0.6-1.5c-0.4-0.4-0.9-0.6-1.6-0.6
		c-0.7,0-1.2,0.2-1.6,0.6c-0.4,0.4-0.6,0.9-0.6,1.5c0,0.6,0.2,1.1,0.6,1.5c0.4,0.4,0.9,0.6,1.6,0.6C116.5,18.8,117,18.6,117.4,18.2z
		"/>
	<linearGradient id="SVGID_8_" gradientUnits="userSpaceOnUse" x1="56.98" y1="10.665" x2="61.1541" y2="10.665">
		<stop  offset="0.2203" style="stop-color:#03BA85"/>
		<stop  offset="1" style="stop-color:#064466"/>
	</linearGradient>
	<path class="st8" d="M59.1,12.5c1.2,0,2.1-0.8,2.1-1.9c0-1-0.9-1.9-2.1-1.9c-1.2,0-2.1,0.8-2.1,1.9C57,11.7,57.9,12.5,59.1,12.5z"
		/>
	<linearGradient id="SVGID_9_" gradientUnits="userSpaceOnUse" x1="56.98" y1="17.6834" x2="61.1541" y2="17.6834">
		<stop  offset="0.2203" style="stop-color:#03BA85"/>
		<stop  offset="1" style="stop-color:#064466"/>
	</linearGradient>
	<path class="st9" d="M61.2,13.8c-1.3,0.6-2.9,0.6-4.2,0v7.7h4.2V13.8z"/>
</g>
<g>
	<linearGradient id="SVGID_10_" gradientUnits="userSpaceOnUse" x1="9.182" y1="17.7364" x2="14.5277" y2="17.7364">
		<stop  offset="0.2203" style="stop-color:#03BA85"/>
		<stop  offset="1" style="stop-color:#064466"/>
	</linearGradient>
	<path class="st10" d="M11.9,20.7c-1.5,0-2.7-1.3-2.7-3c0-1.6,1.2-3,2.7-3c1.5,0,2.7,1.3,2.7,3C14.5,19.4,13.3,20.7,11.9,20.7z"/>
</g>
<g>
	<linearGradient id="SVGID_11_" gradientUnits="userSpaceOnUse" x1="19.0467" y1="17.7364" x2="24.394" y2="17.7364">
		<stop  offset="0.2203" style="stop-color:#03BA85"/>
		<stop  offset="1" style="stop-color:#064466"/>
	</linearGradient>
	<path class="st11" d="M21.7,20.7c-1.5,0-2.7-1.3-2.7-3c0-1.6,1.2-3,2.7-3c1.5,0,2.7,1.3,2.7,3C24.4,19.4,23.2,20.7,21.7,20.7z"/>
</g>
</svg>
