<?xml version="1.0" encoding="utf-8"?>
<!-- Generator: Adobe Illustrator 24.2.0, SVG Export Plug-In . SVG Version: 6.00 Build 0)  -->
<svg version="1.1" id="Capa_1" xmlns="http://www.w3.org/2000/svg" xmlns:xlink="http://www.w3.org/1999/xlink" x="0px" y="0px"
	 viewBox="0 0 125.9 125.9" style="enable-background:new 0 0 125.9 125.9;" xml:space="preserve">
<style type="text/css">
	.st0{fill:url(#SVGID_1_);}
	.st1{fill:#FFFFFF;}
	.st2{fill:url(#SVGID_2_);}
	.st3{fill:url(#SVGID_3_);}
	.st4{fill:url(#SVGID_4_);}
	.st5{fill:url(#SVGID_5_);}
	.st6{fill:url(#SVGID_6_);}
	.st7{fill:url(#SVGID_7_);}
	.st8{fill:url(#SVGID_8_);}
	.st9{fill:url(#SVGID_9_);}
	.st10{fill:url(#SVGID_10_);}
	.st11{fill:url(#SVGID_11_);}
	.st12{fill:url(#SVGID_12_);}
	.st13{fill:url(#SVGID_13_);}
	.st14{fill:url(#SVGID_14_);}
	.st15{fill:url(#SVGID_15_);}
	.st16{fill:url(#SVGID_16_);}
	.st17{fill:url(#SVGID_17_);}
	.st18{fill:url(#SVGID_18_);}
</style>
<g>
	
		<linearGradient id="SVGID_1_" gradientUnits="userSpaceOnUse" x1="3.5" y1="730.7008" x2="123" y2="730.7008" gradientTransform="matrix(1 0 0 1 0 -667.7008)">
		<stop  offset="0" style="stop-color:#E04445"/>
		<stop  offset="1" style="stop-color:#801624"/>
	</linearGradient>
	<path class="st0" d="M63.9,7.9C94.3,7.9,119,32.6,119,63l0,0c0,30.4-24.7,55.1-55.1,55.1h-1.3C32.2,118.1,7.5,93.4,7.5,63l0,0
		c0-30.4,24.7-55.1,55.1-55.1L63.9,7.9 M63.9,3.9h-1.3C30,3.9,3.5,30.4,3.5,63s26.5,59.1,59.1,59.1h1.3c32.6,0,59.1-26.5,59.1-59.1
		S96.5,3.9,63.9,3.9L63.9,3.9z"/>
</g>
<g>
	<g>
		<path class="st1" d="M62.9,12.7H64c27.6,0,50,22.4,50,50l0,0c0,27.6-22.4,50-50,50h-1.2c-27.6,0-50-22.4-50-50l0,0
			C12.9,35,35.3,12.7,62.9,12.7z"/>
		<g>
			<g>
				<g id="_x33_08_x2C__Process_x2C__Control_x2C__Development_x2C__Eco_x2C__Energy_8_">
					<g>
						
							<linearGradient id="SVGID_2_" gradientUnits="userSpaceOnUse" x1="49.3882" y1="63.0008" x2="77.5103" y2="63.0008" gradientTransform="matrix(1 0 0 -1 0 125.7008)">
							<stop  offset="0" style="stop-color:#E04445"/>
							<stop  offset="1" style="stop-color:#801624"/>
						</linearGradient>
						<path class="st2" d="M77.5,62.7c0-7.7-6.4-13.9-14.1-13.9S49.3,55,49.3,62.7s6.3,13.9,14.1,13.9
							C71.2,76.6,77.5,70.4,77.5,62.7z M63.4,74.1c-1.2,0-2.4-0.2-3.5-0.5l10.6-10.5c0.7-0.7,0.3-2-0.7-2.1l-3.5-0.5l1.2-2.6
							c0.4-0.8-0.2-1.8-1.1-1.8h-5.2c-0.5,0-0.9,0.3-1.1,0.7l-3.8,8.5c-0.4,0.8,0.2,1.8,1.1,1.8h2.5l-2.5,5.2
							c-3.2-2-5.4-5.6-5.4-9.6c0-6.3,5.2-11.4,11.5-11.4c6.4,0,11.5,5.1,11.5,11.4C75,69,69.8,74.1,63.4,74.1z M64.3,62.8l2.6,0.4
							l-4.6,4.5l0.6-1.2c0.4-0.8-0.2-1.8-1.1-1.8h-2.5l2.7-6h2.3l-1.1,2.4C62.9,61.8,63.4,62.7,64.3,62.8z"/>
						
							<linearGradient id="SVGID_3_" gradientUnits="userSpaceOnUse" x1="87.5249" y1="89.2508" x2="90.0542" y2="89.2508" gradientTransform="matrix(1 0 0 -1 0 125.7008)">
							<stop  offset="0" style="stop-color:#E04445"/>
							<stop  offset="1" style="stop-color:#801624"/>
						</linearGradient>
						<rect x="87.5" y="35.2" class="st3" width="2.5" height="2.5"/>
						
							<linearGradient id="SVGID_4_" gradientUnits="userSpaceOnUse" x1="78.6226" y1="89.2508" x2="86.2095" y2="89.2508" gradientTransform="matrix(1 0 0 -1 0 125.7008)">
							<stop  offset="0" style="stop-color:#E04445"/>
							<stop  offset="1" style="stop-color:#801624"/>
						</linearGradient>
						<rect x="78.6" y="35.2" class="st4" width="7.6" height="2.5"/>
						
							<linearGradient id="SVGID_5_" gradientUnits="userSpaceOnUse" x1="44.5328" y1="37.9508" x2="47.0611" y2="37.9508" gradientTransform="matrix(1 0 0 -1 0 125.7008)">
							<stop  offset="0" style="stop-color:#E04445"/>
							<stop  offset="1" style="stop-color:#801624"/>
						</linearGradient>
						<rect x="44.5" y="86.5" class="st5" width="2.5" height="2.5"/>
						
							<linearGradient id="SVGID_6_" gradientUnits="userSpaceOnUse" x1="35.6304" y1="37.9508" x2="43.2173" y2="37.9508" gradientTransform="matrix(1 0 0 -1 0 125.7008)">
							<stop  offset="0" style="stop-color:#E04445"/>
							<stop  offset="1" style="stop-color:#801624"/>
						</linearGradient>
						<rect x="35.6" y="86.5" class="st6" width="7.6" height="2.5"/>
						
							<linearGradient id="SVGID_7_" gradientUnits="userSpaceOnUse" x1="88.7388" y1="41.7008" x2="91.3687" y2="41.7008" gradientTransform="matrix(1 0 0 -1 0 125.7008)">
							<stop  offset="0" style="stop-color:#E04445"/>
							<stop  offset="1" style="stop-color:#801624"/>
						</linearGradient>
						<path class="st7" d="M90.1,82.7c0.7,0,1.3,0.6,1.3,1.3c0,0.7-0.6,1.3-1.3,1.3c-0.7,0-1.3-0.6-1.3-1.3
							C88.7,83.2,89.3,82.7,90.1,82.7z"/>
						
							<linearGradient id="SVGID_8_" gradientUnits="userSpaceOnUse" x1="35.6304" y1="88.0008" x2="38.2603" y2="88.0008" gradientTransform="matrix(1 0 0 -1 0 125.7008)">
							<stop  offset="0" style="stop-color:#E04445"/>
							<stop  offset="1" style="stop-color:#801624"/>
						</linearGradient>
						<path class="st8" d="M36.9,36.4c0.7,0,1.3,0.6,1.3,1.3S37.6,39,36.9,39s-1.3-0.6-1.3-1.3C35.6,36.9,36.2,36.4,36.9,36.4z"/>
						
							<linearGradient id="SVGID_9_" gradientUnits="userSpaceOnUse" x1="52.0181" y1="78.0008" x2="54.648" y2="78.0008" gradientTransform="matrix(1 0 0 -1 0 125.7008)">
							<stop  offset="0" style="stop-color:#E04445"/>
							<stop  offset="1" style="stop-color:#801624"/>
						</linearGradient>
						<path class="st9" d="M53.3,46.4c0.7,0,1.3,0.6,1.3,1.3S54,49,53.3,49S52,48.4,52,47.7C52,46.9,52.6,46.4,53.3,46.4z"/>
						
							<linearGradient id="SVGID_10_" gradientUnits="userSpaceOnUse" x1="77.3081" y1="71.7008" x2="79.938" y2="71.7008" gradientTransform="matrix(1 0 0 -1 0 125.7008)">
							<stop  offset="0" style="stop-color:#E04445"/>
							<stop  offset="1" style="stop-color:#801624"/>
						</linearGradient>
						<path class="st10" d="M78.6,52.7c0.7,0,1.3,0.6,1.3,1.3s-0.6,1.3-1.3,1.3c-0.7,0-1.3-0.6-1.3-1.3
							C77.3,53.2,77.9,52.7,78.6,52.7z"/>
						
							<linearGradient id="SVGID_11_" gradientUnits="userSpaceOnUse" x1="67.1919" y1="45.5008" x2="69.8218" y2="45.5008" gradientTransform="matrix(1 0 0 -1 0 125.7008)">
							<stop  offset="0" style="stop-color:#E04445"/>
							<stop  offset="1" style="stop-color:#801624"/>
						</linearGradient>
						<path class="st11" d="M68.5,78.9c0.7,0,1.3,0.6,1.3,1.3c0,0.7-0.6,1.3-1.3,1.3c-0.7,0-1.3-0.6-1.3-1.3
							C67.2,79.4,67.8,78.9,68.5,78.9z"/>
						
							<linearGradient id="SVGID_12_" gradientUnits="userSpaceOnUse" x1="50.8042" y1="48.0008" x2="53.4341" y2="48.0008" gradientTransform="matrix(1 0 0 -1 0 125.7008)">
							<stop  offset="0" style="stop-color:#E04445"/>
							<stop  offset="1" style="stop-color:#801624"/>
						</linearGradient>
						<path class="st12" d="M52.1,76.4c0.7,0,1.3,0.6,1.3,1.3c0,0.7-0.6,1.3-1.3,1.3s-1.3-0.6-1.3-1.3
							C50.8,76.9,51.4,76.4,52.1,76.4z"/>
						
							<linearGradient id="SVGID_13_" gradientUnits="userSpaceOnUse" x1="35.8873" y1="48.0072" x2="83.5" y2="48.0072" gradientTransform="matrix(1 0 0 -1 0 125.7008)">
							<stop  offset="0" style="stop-color:#E04445"/>
							<stop  offset="1" style="stop-color:#801624"/>
						</linearGradient>
						<path class="st13" d="M82.7,80.1C82.4,80,82.6,80,76.8,80c-0.7,0-1.3,0.6-1.3,1.3c0,0.7,0.6,1.3,1.3,1.3h2
							c-4.3,3.3-9.7,5.1-15.4,5.1c-12.8,0-23.3-9.4-25-21.4c-0.1-0.7-0.7-1.2-1.4-1.1s-1.2,0.7-1.1,1.4
							c1.9,13.2,13.4,23.6,27.5,23.6c6.5,0,12.5-2.2,17.5-6.1v2.5c0,0.7,0.6,1.3,1.3,1.3c0.7,0,1.3-0.6,1.3-1.3v-5.3
							C83.5,80.8,83.2,80.3,82.7,80.1z"/>
						
							<linearGradient id="SVGID_14_" gradientUnits="userSpaceOnUse" x1="43.2173" y1="77.9787" x2="90.93" y2="77.9787" gradientTransform="matrix(1 0 0 -1 0 125.7008)">
							<stop  offset="0" style="stop-color:#E04445"/>
							<stop  offset="1" style="stop-color:#801624"/>
						</linearGradient>
						<path class="st14" d="M44.2,45.3c0.3,0.1,0.1,0.1,5.8,0.1c0.7,0,1.3-0.6,1.3-1.2c0-0.7-0.6-1.3-1.3-1.3h-2
							c9.8-7.5,24.2-6.9,33.3,2.1c3.9,3.9,6.4,8.7,7.2,14.1c0.1,0.7,0.7,1.2,1.4,1.1c0.7-0.1,1.2-0.7,1.1-1.4
							c-0.8-5.9-3.5-11.3-7.9-15.5c-10.2-10.1-26.3-10.7-37.2-1.9v-2.5c0-0.7-0.6-1.3-1.3-1.3s-1.3,0.6-1.3,1.3v5.3
							C43.4,44.6,43.7,45.1,44.2,45.3z"/>
						
							<linearGradient id="SVGID_15_" gradientUnits="userSpaceOnUse" x1="33.1011" y1="44.2008" x2="40.688" y2="44.2008" gradientTransform="matrix(1 0 0 -1 0 125.7008)">
							<stop  offset="0" style="stop-color:#E04445"/>
							<stop  offset="1" style="stop-color:#801624"/>
						</linearGradient>
						<path class="st15" d="M40.7,81.5c0-2.1-1.7-3.8-3.8-3.8s-3.7,1.7-3.7,3.8c0,2.1,1.7,3.8,3.8,3.8S40.7,83.5,40.7,81.5z
							 M35.6,81.5c0-0.7,0.6-1.3,1.3-1.3s1.3,0.6,1.3,1.3c0,0.7-0.6,1.3-1.3,1.3C36.2,82.8,35.6,82.1,35.6,81.5z"/>
						
							<linearGradient id="SVGID_16_" gradientUnits="userSpaceOnUse" x1="86.2095" y1="82.3008" x2="92.482" y2="82.3008" gradientTransform="matrix(1 0 0 -1 0 125.7008)">
							<stop  offset="0" style="stop-color:#E04445"/>
							<stop  offset="1" style="stop-color:#801624"/>
						</linearGradient>
						<path class="st16" d="M89.3,46.5c1.7,0,3.1-1.4,3.1-3.1c0-1.7-1.4-3.1-3.1-3.1s-3.1,1.4-3.1,3.1
							C86.2,45.1,87.6,46.5,89.3,46.5z M89.3,42.7c0.3,0,0.6,0.3,0.6,0.6s-0.3,0.6-0.6,0.6c-0.3,0-0.6-0.2-0.6-0.6
							C88.7,42.9,89,42.7,89.3,42.7z"/>
						
							<linearGradient id="SVGID_17_" gradientUnits="userSpaceOnUse" x1="39.3736" y1="71.8008" x2="47.0611" y2="71.8008" gradientTransform="matrix(1 0 0 -1 0 125.7008)">
							<stop  offset="0" style="stop-color:#E04445"/>
							<stop  offset="1" style="stop-color:#801624"/>
						</linearGradient>
						<path class="st17" d="M43.2,57.7c2.1,0,3.8-1.7,3.8-3.8s-1.7-3.8-3.8-3.8s-3.8,1.7-3.8,3.8S41.1,57.7,43.2,57.7z M43.2,52.7
							c0.7,0,1.3,0.6,1.3,1.3s-0.6,1.3-1.3,1.3s-1.3-0.6-1.3-1.3S42.5,52.7,43.2,52.7z"/>
						
							<linearGradient id="SVGID_18_" gradientUnits="userSpaceOnUse" x1="83.6812" y1="58.6008" x2="92.5826" y2="58.6008" gradientTransform="matrix(1 0 0 -1 0 125.7008)">
							<stop  offset="0" style="stop-color:#E04445"/>
							<stop  offset="1" style="stop-color:#801624"/>
						</linearGradient>
						<path class="st18" d="M88.1,62.7c-2.4,0-4.5,2-4.5,4.4s2,4.4,4.5,4.4c2.4,0,4.5-2,4.5-4.4S90.6,62.7,88.1,62.7z M88.1,69
							c-1,0-1.9-0.8-1.9-1.9s0.8-1.9,1.9-1.9S90,66,90,67.1S89.1,69,88.1,69z"/>
					</g>
				</g>
			</g>
		</g>
	</g>
</g>
</svg>
