<?xml version="1.0" encoding="utf-8"?>
<!-- Generator: Adobe Illustrator 24.2.0, SVG Export Plug-In . SVG Version: 6.00 Build 0)  -->
<svg version="1.1" id="Capa_1" xmlns="http://www.w3.org/2000/svg" xmlns:xlink="http://www.w3.org/1999/xlink" x="0px" y="0px"
	 viewBox="0 0 125.9 125.9" style="enable-background:new 0 0 125.9 125.9;" xml:space="preserve">
<style type="text/css">
	.st0{fill:#FFFFFF;}
	.st1{fill:url(#SVGID_1_);}
	.st2{fill:url(#SVGID_2_);}
	.st3{fill:url(#SVGID_3_);}
	.st4{fill:url(#SVGID_4_);}
	.st5{fill:url(#SVGID_5_);}
	.st6{fill:url(#SVGID_6_);}
	.st7{fill:url(#SVGID_7_);}
	.st8{fill:url(#SVGID_8_);}
	.st9{fill:url(#SVGID_9_);}
	.st10{fill:url(#SVGID_10_);}
	.st11{fill:url(#SVGID_11_);}
	.st12{fill:url(#SVGID_12_);}
	.st13{fill:url(#SVGID_13_);}
	.st14{fill:url(#SVGID_14_);}
	.st15{fill:url(#SVGID_15_);}
	.st16{fill:url(#SVGID_16_);}
	.st17{fill:url(#SVGID_17_);}
	.st18{fill:url(#SVGID_18_);}
</style>
<g>
	<g>
		<path class="st0" d="M62.7,13h1.2c27.6,0,50,22.4,50,50l0,0c0,27.6-22.4,50-50,50h-1.2c-27.6,0-50-22.4-50-50l0,0
			C12.7,35.4,35.1,13,62.7,13z"/>
		<g>
			<g>
				<g id="_x33_23_x2C__Bag_x2C__Eco_x2C__Leaf_x2C__Nature_x2C__Recycle_8_">
					<g>
						
							<linearGradient id="SVGID_1_" gradientUnits="userSpaceOnUse" x1="46.0273" y1="52.6455" x2="71.7615" y2="52.6455" gradientTransform="matrix(1 0 0 -1 0 125.7008)">
							<stop  offset="0" style="stop-color:#E04545"/>
							<stop  offset="1" style="stop-color:#800020"/>
						</linearGradient>
						<path class="st1" d="M71.5,66.5c-0.1-0.5-0.5-0.9-1-1c-4.5-0.7-8.9,0.3-11.7,3.7c-2.8-3.3-7.2-4.2-11.5-3.5
							c-0.5,0.1-0.9,0.5-1,1c-1.5,9.1,4.9,15.4,14,13.9c3.2,0,6.3-0.9,8.5-3.2C71.2,74.8,72.2,70.9,71.5,66.5z M48.5,68
							c6.1-0.6,10.2,2.9,10.4,8.5L58.4,76l-0.3-2.3c-0.1-1-1.4-1.4-2.1-0.7l-0.2-1.6c-0.1-0.7-0.7-1.2-1.4-1.1
							c-0.4,0.1-0.8,0.3-0.9,0.7l-1.9-1.9c-0.5-0.5-1.3-0.5-1.8,0s-0.5,1.3,0,1.8l0.3,0.3c-0.4,0.2-0.6,0.5-0.7,0.9
							c-0.1,0.7,0.4,1.3,1.1,1.4l1.6,0.2c-0.7,0.7-0.3,2,0.7,2.1l2.3,0.3l2.1,2.1C51.4,78.2,47.9,74.1,48.5,68z M61.4,78.1
							c0-0.2,0-0.4,0-0.6l1.4-1.4l2.1-0.3c1-0.1,1.4-1.4,0.7-2.1l1.6-0.2c0.7-0.1,1.2-0.7,1.1-1.4c-0.1-0.4-0.3-0.8-0.7-0.9l0.3-0.3
							c0.5-0.5,0.5-1.3,0-1.8s-1.3-0.5-1.8,0L64.4,71c-0.2-0.4-0.5-0.7-1-0.7c-0.7-0.1-1.3,0.4-1.4,1.1l-0.3,2.4l-0.5,0.5
							c-0.2-1-0.5-1.9-0.9-2.7c1.9-2.9,5.4-4,8.9-3.6C69.8,73.7,66.5,77.6,61.4,78.1z"/>
						
							<linearGradient id="SVGID_2_" gradientUnits="userSpaceOnUse" x1="40.3838" y1="60.1928" x2="87.3218" y2="60.1928" gradientTransform="matrix(1 0 0 -1 0 125.7008)">
							<stop  offset="0" style="stop-color:#E04545"/>
							<stop  offset="1" style="stop-color:#800020"/>
						</linearGradient>
						<path class="st2" d="M87,91.2L87,91.2c0.1-0.1,0.1-0.2,0.2-0.2c0.1-0.3,0.1,1.1,0.1-40.5c0-0.7-0.6-1.3-1.3-1.3h-5.1
							c-0.1-5.5-4.7-10-10.3-10c-2.5,0-4.8,0.9-6.6,2.3c-1.8-1.5-4-2.3-6.6-2.3c-5.7,0-10.2,4.5-10.3,10h-5.5
							c-0.7,0-1.3,0.6-1.3,1.3v40c0,0.7,0.6,1.3,1.3,1.3h34.2c10.8,0,10.3,0.1,10.7-0.2c0.1,0,0.1,0,0.1-0.1c0,0,0.1,0,0.1-0.1l0,0
							C86.9,91.4,86.9,91.3,87,91.2C87,91.3,87,91.2,87,91.2z M84.8,87.5L82.3,85V65.5c0-0.7-0.6-1.3-1.3-1.3
							c-0.7,0-1.3,0.6-1.3,1.3V85l-2.5,2.5V51.8h7.6L84.8,87.5L84.8,87.5z M80.9,87.3l2,2h-4L80.9,87.3z M78.4,49.3
							c-2.2,0-8.6,0-10.6,0c0-2.2-0.8-4.2-2-5.8c1.3-1,3-1.7,4.9-1.7C74.9,41.8,78.3,45.1,78.4,49.3z M64.1,45.3
							c0.7,1.1,1.1,2.5,1.2,3.9h-2.4C62.9,47.8,63.3,46.5,64.1,45.3z M57.5,41.8c1.8,0,3.5,0.6,4.9,1.7c-1.2,1.6-1.9,3.6-2,5.8H49.7
							C49.8,45.1,53.2,41.8,57.5,41.8z M43,86.8h25.3c0.7,0,1.3-0.6,1.3-1.3s-0.6-1.3-1.3-1.3H43V51.8h4.1v3.8h-0.4
							c-0.7,0-1.3,0.6-1.3,1.3s0.6,1.3,1.3,1.3H50c0.7,0,1.3-0.6,1.3-1.3s-0.6-1.3-1.3-1.3h-0.4v-3.8h15.6v3.8h-0.4
							c-0.7,0-1.3,0.6-1.3,1.3s0.6,1.3,1.3,1.3h3.3c0.7,0,1.3-0.6,1.3-1.3s-0.6-1.3-1.3-1.3h-0.4v-3.8h6.9v37.5H43V86.8z"/>
						
							<linearGradient id="SVGID_3_" gradientUnits="userSpaceOnUse" x1="79.6338" y1="63.9008" x2="82.2637" y2="63.9008" gradientTransform="matrix(1 0 0 -1 0 125.7008)">
							<stop  offset="0" style="stop-color:#E04545"/>
							<stop  offset="1" style="stop-color:#800020"/>
						</linearGradient>
						<path class="st3" d="M80.9,60.5c0.7,0,1.3,0.6,1.3,1.3s-0.6,1.3-1.3,1.3c-0.7,0-1.3-0.6-1.3-1.3S80.2,60.5,80.9,60.5z"/>
						
							<linearGradient id="SVGID_4_" gradientUnits="userSpaceOnUse" x1="70.8326" y1="40.2008" x2="73.4629" y2="40.2008" gradientTransform="matrix(1 0 0 -1 0 125.7008)">
							<stop  offset="0" style="stop-color:#E04545"/>
							<stop  offset="1" style="stop-color:#800020"/>
						</linearGradient>
						<path class="st4" d="M72.1,84.2c0.7,0,1.3,0.6,1.3,1.3c0,0.7-0.6,1.3-1.3,1.3c-0.7,0-1.3-0.6-1.3-1.3
							C70.8,84.8,71.4,84.2,72.1,84.2z"/>
						
							<linearGradient id="SVGID_5_" gradientUnits="userSpaceOnUse" x1="35.4273" y1="57.7008" x2="38.0572" y2="57.7008" gradientTransform="matrix(1 0 0 -1 0 125.7008)">
							<stop  offset="0" style="stop-color:#E04545"/>
							<stop  offset="1" style="stop-color:#800020"/>
						</linearGradient>
						<path class="st5" d="M36.7,66.7c0.7,0,1.3,0.6,1.3,1.3c0,0.7-0.6,1.3-1.3,1.3s-1.3-0.6-1.3-1.3C35.4,67.3,36,66.7,36.7,66.7z"
							/>
						
							<linearGradient id="SVGID_6_" gradientUnits="userSpaceOnUse" x1="88.5357" y1="43.9008" x2="91.1656" y2="43.9008" gradientTransform="matrix(1 0 0 -1 0 125.7008)">
							<stop  offset="0" style="stop-color:#E04545"/>
							<stop  offset="1" style="stop-color:#800020"/>
						</linearGradient>
						<path class="st6" d="M89.9,80.5c0.7,0,1.3,0.6,1.3,1.3c0,0.7-0.6,1.3-1.3,1.3c-0.7,0-1.3-0.6-1.3-1.3
							C88.5,81.1,89.1,80.5,89.9,80.5z"/>
						
							<linearGradient id="SVGID_7_" gradientUnits="userSpaceOnUse" x1="63.2457" y1="87.7008" x2="65.876" y2="87.7008" gradientTransform="matrix(1 0 0 -1 0 125.7008)">
							<stop  offset="0" style="stop-color:#E04545"/>
							<stop  offset="1" style="stop-color:#800020"/>
						</linearGradient>
						<path class="st7" d="M64.6,36.7c0.7,0,1.3,0.6,1.3,1.3s-0.6,1.3-1.3,1.3c-0.7,0-1.3-0.6-1.3-1.3
							C63.2,37.3,63.8,36.7,64.6,36.7z"/>
						
							<linearGradient id="SVGID_8_" gradientUnits="userSpaceOnUse" x1="77.1045" y1="90.2008" x2="79.7349" y2="90.2008" gradientTransform="matrix(1 0 0 -1 0 125.7008)">
							<stop  offset="0" style="stop-color:#E04545"/>
							<stop  offset="1" style="stop-color:#800020"/>
						</linearGradient>
						<path class="st8" d="M78.4,34.2c0.7,0,1.3,0.6,1.3,1.3s-0.6,1.3-1.3,1.3c-0.7,0-1.3-0.6-1.3-1.3S77.7,34.2,78.4,34.2z"/>
						
							<linearGradient id="SVGID_9_" gradientUnits="userSpaceOnUse" x1="49.2857" y1="90.2008" x2="51.9161" y2="90.2008" gradientTransform="matrix(1 0 0 -1 0 125.7008)">
							<stop  offset="0" style="stop-color:#E04545"/>
							<stop  offset="1" style="stop-color:#800020"/>
						</linearGradient>
						<path class="st9" d="M50.6,34.2c0.7,0,1.3,0.6,1.3,1.3s-0.6,1.3-1.3,1.3s-1.3-0.6-1.3-1.3S49.9,34.2,50.6,34.2z"/>
						
							<linearGradient id="SVGID_10_" gradientUnits="userSpaceOnUse" x1="35.4273" y1="85.2008" x2="38.0572" y2="85.2008" gradientTransform="matrix(1 0 0 -1 0 125.7008)">
							<stop  offset="0" style="stop-color:#E04545"/>
							<stop  offset="1" style="stop-color:#800020"/>
						</linearGradient>
						<path class="st10" d="M36.7,39.2c0.7,0,1.3,0.6,1.3,1.3s-0.6,1.3-1.3,1.3s-1.3-0.6-1.3-1.3S36,39.2,36.7,39.2z"/>
						
							<linearGradient id="SVGID_11_" gradientUnits="userSpaceOnUse" x1="88.5357" y1="88.9508" x2="91.0645" y2="88.9508" gradientTransform="matrix(1 0 0 -1 0 125.7008)">
							<stop  offset="0" style="stop-color:#E04545"/>
							<stop  offset="1" style="stop-color:#800020"/>
						</linearGradient>
						<rect x="88.5" y="35.5" class="st11" width="2.5" height="2.5"/>
						
							<linearGradient id="SVGID_12_" gradientUnits="userSpaceOnUse" x1="82.2637" y1="88.9508" x2="87.3218" y2="88.9508" gradientTransform="matrix(1 0 0 -1 0 125.7008)">
							<stop  offset="0" style="stop-color:#E04545"/>
							<stop  offset="1" style="stop-color:#800020"/>
						</linearGradient>
						<rect x="82.3" y="35.5" class="st12" width="5.1" height="2.5"/>
						
							<linearGradient id="SVGID_13_" gradientUnits="userSpaceOnUse" x1="40.4849" y1="80.1508" x2="43.0142" y2="80.1508" gradientTransform="matrix(1 0 0 -1 0 125.7008)">
							<stop  offset="0" style="stop-color:#E04545"/>
							<stop  offset="1" style="stop-color:#800020"/>
						</linearGradient>
						<rect x="40.5" y="44.3" class="st13" width="2.5" height="2.5"/>
						
							<linearGradient id="SVGID_14_" gradientUnits="userSpaceOnUse" x1="34.2134" y1="80.1508" x2="39.271" y2="80.1508" gradientTransform="matrix(1 0 0 -1 0 125.7008)">
							<stop  offset="0" style="stop-color:#E04545"/>
							<stop  offset="1" style="stop-color:#800020"/>
						</linearGradient>
						<rect x="34.2" y="44.3" class="st14" width="5.1" height="2.5"/>
						
							<linearGradient id="SVGID_15_" gradientUnits="userSpaceOnUse" x1="40.4849" y1="86.5008" x2="48.1734" y2="86.5008" gradientTransform="matrix(1 0 0 -1 0 125.7008)">
							<stop  offset="0" style="stop-color:#E04545"/>
							<stop  offset="1" style="stop-color:#800020"/>
						</linearGradient>
						<path class="st15" d="M44.3,43c2.1,0,3.8-1.7,3.8-3.8s-1.7-3.8-3.8-3.8s-3.8,1.7-3.8,3.8S42.2,43,44.3,43z M44.3,38
							c0.7,0,1.3,0.6,1.3,1.3s-0.6,1.3-1.3,1.3S43,39.9,43,39.3C43,38.6,43.6,38,44.3,38z"/>
						
							<linearGradient id="SVGID_16_" gradientUnits="userSpaceOnUse" x1="84.7925" y1="80.8008" x2="91.0645" y2="80.8008" gradientTransform="matrix(1 0 0 -1 0 125.7008)">
							<stop  offset="0" style="stop-color:#E04545"/>
							<stop  offset="1" style="stop-color:#800020"/>
						</linearGradient>
						<path class="st16" d="M87.9,41.8c-1.7,0-3.1,1.4-3.1,3.1c0,1.7,1.4,3.1,3.1,3.1s3.1-1.4,3.1-3.1
							C91.1,43.2,89.6,41.8,87.9,41.8z M87.9,45.5c-0.3,0-0.6-0.3-0.6-0.6s0.3-0.6,0.6-0.6c0.3,0,0.6,0.3,0.6,0.6
							S88.2,45.5,87.9,45.5z"/>
						
							<linearGradient id="SVGID_17_" gradientUnits="userSpaceOnUse" x1="36.6412" y1="45.1508" x2="39.271" y2="45.1508" gradientTransform="matrix(1 0 0 -1 0 125.7008)">
							<stop  offset="0" style="stop-color:#E04545"/>
							<stop  offset="1" style="stop-color:#800020"/>
						</linearGradient>
						<path class="st17" d="M38,73c-0.7,0-1.3,0.6-1.3,1.3v12.5c0,0.7,0.6,1.3,1.3,1.3s1.3-0.6,1.3-1.3V74.3
							C39.3,73.6,38.7,73,38,73z"/>
					</g>
				</g>
			</g>
		</g>
	</g>
</g>
<g>
	
		<linearGradient id="SVGID_18_" gradientUnits="userSpaceOnUse" x1="3.5" y1="62.7008" x2="123" y2="62.7008" gradientTransform="matrix(1 0 0 -1 0 125.7008)">
		<stop  offset="0" style="stop-color:#E04545"/>
		<stop  offset="1" style="stop-color:#800020"/>
	</linearGradient>
	<path class="st18" d="M63.9,7.9C94.3,7.9,119,32.6,119,63l0,0c0,30.4-24.7,55.1-55.1,55.1h-1.3C32.2,118.1,7.5,93.4,7.5,63l0,0
		c0-30.4,24.7-55.1,55.1-55.1L63.9,7.9 M63.9,3.9h-1.3C30,3.9,3.5,30.4,3.5,63s26.5,59.1,59.1,59.1h1.3c32.6,0,59.1-26.5,59.1-59.1
		S96.5,3.9,63.9,3.9L63.9,3.9z"/>
</g>
</svg>
