<?xml version="1.0" encoding="utf-8"?>
<!-- Generator: Adobe Illustrator 24.2.0, SVG Export Plug-In . SVG Version: 6.00 Build 0)  -->
<svg version="1.1" id="Capa_1" xmlns="http://www.w3.org/2000/svg" xmlns:xlink="http://www.w3.org/1999/xlink" x="0px" y="0px"
	 viewBox="0 0 125.9 125.9" style="enable-background:new 0 0 125.9 125.9;" xml:space="preserve">
<style type="text/css">
	.st0{fill:#FFFFFF;}
	.st1{fill:url(#SVGID_1_);}
	.st2{fill:url(#SVGID_2_);}
	.st3{fill:url(#SVGID_3_);}
	.st4{fill:url(#SVGID_4_);}
	.st5{fill:url(#SVGID_5_);}
	.st6{fill:url(#SVGID_6_);}
	.st7{fill:url(#SVGID_7_);}
	.st8{fill:url(#SVGID_8_);}
	.st9{fill:url(#SVGID_9_);}
	.st10{fill:url(#SVGID_10_);}
	.st11{fill:url(#SVGID_11_);}
	.st12{fill:url(#SVGID_12_);}
	.st13{fill:url(#SVGID_13_);}
	.st14{fill:url(#SVGID_14_);}
	.st15{fill:url(#SVGID_15_);}
	.st16{fill:url(#SVGID_16_);}
	.st17{fill:url(#SVGID_17_);}
	.st18{fill:url(#SVGID_18_);}
	.st19{fill:url(#SVGID_19_);}
	.st20{fill:url(#SVGID_20_);}
</style>
<g>
	<g>
		<path class="st0" d="M62.9,12.7H64c27.6,0,50,22.4,50,50l0,0c0,27.6-22.4,50-50,50h-1.2c-27.6,0-50-22.4-50-50l0,0
			C12.9,35,35.2,12.7,62.9,12.7z"/>
		<g>
			<g>
				<g id="_x33_18_x2C__Auto_x2C__Charger_x2C__Eco_x2C__Ecology_x2C__Energy_9_">
					<g>
						
							<linearGradient id="SVGID_1_" gradientUnits="userSpaceOnUse" x1="42.7178" y1="60.0508" x2="87.5018" y2="60.0508" gradientTransform="matrix(1 0 0 -1 0 125.7008)">
							<stop  offset="0" style="stop-color:#E04445"/>
							<stop  offset="1" style="stop-color:#801624"/>
						</linearGradient>
						<path class="st1" d="M86.2,90.2H64.8v-4.9c12.2,2.1,21-6.9,19-19c-0.1-0.5-0.4-0.9-0.9-1c-7.4-1.8-14.3,0.4-18.1,6v-5.4
							c4.7-0.6,8.2-4.5,8.2-9.3v-8.1c0-0.7-0.6-1.3-1.3-1.3h-1.3v-5.6c0-1.7-1.4-3.1-3.1-3.1s-3.1,1.4-3.1,3.1v5.6h-1.3v-5.6
							c0-1.7-1.4-3.1-3.1-3.1s-3.1,1.4-3.1,3.1v5.6h-1.3c-0.7,0-1.3,0.6-1.3,1.3v8.1c0,4.7,3.5,8.7,8.2,9.3v5.4
							c-3.9-5.8-11-7.7-18.1-6c-0.5,0.1-0.9,0.5-0.9,1c-2,12.1,6.8,21.1,19,19v4.9h-8.7c-0.7,0-1.3,0.6-1.3,1.3
							c0,0.7,0.6,1.3,1.3,1.3h32.9c0.7,0,1.3-0.6,1.3-1.3C87.5,90.8,86.9,90.2,86.2,90.2z M81.3,67.4c1.3,9.6-5.4,16.6-15,15.5
							l7.3-6.5c0.5-0.5,0.5-1.3,0.1-1.8c-0.5-0.5-1.3-0.5-1.8-0.1l-7.1,6.4v-3C66,70.3,72.7,65.7,81.3,67.4z M66.6,41.5
							c0-0.3,0.3-0.6,0.6-0.6c0.3,0,0.6,0.3,0.6,0.6v5.6h-1.3v-5.6H66.6z M59,41.5c0-0.3,0.3-0.6,0.6-0.6s0.6,0.3,0.6,0.6v5.6h-1.3
							v-5.6H59z M56.5,56.5v-1.9H64c0.7,0,1.3-0.6,1.3-1.3S64.7,52,64,52h-7.6v-2.5c4.4,0,9.6,0,14,0v6.9c0,3.8-3.1,6.9-7,6.9
							C59.6,63.3,56.5,60.3,56.5,56.5z M45.5,67.4c8.6-1.7,15.4,2.8,16.6,10.5v3L55,74.5c-0.5-0.5-1.3-0.4-1.8,0.1s-0.4,1.3,0.1,1.8
							l7.3,6.5C51,84,44.4,77.1,45.5,67.4z"/>
						
							<linearGradient id="SVGID_2_" gradientUnits="userSpaceOnUse" x1="66.578" y1="72.4008" x2="69.2079" y2="72.4008" gradientTransform="matrix(1 0 0 -1 0 125.7008)">
							<stop  offset="0" style="stop-color:#E04445"/>
							<stop  offset="1" style="stop-color:#801624"/>
						</linearGradient>
						<path class="st2" d="M67.9,52c0.7,0,1.3,0.6,1.3,1.3s-0.6,1.3-1.3,1.3c-0.7,0-1.3-0.6-1.3-1.3C66.6,52.5,67.2,52,67.9,52z"/>
						
							<linearGradient id="SVGID_3_" gradientUnits="userSpaceOnUse" x1="83.6737" y1="87.9508" x2="86.2025" y2="87.9508" gradientTransform="matrix(1 0 0 -1 0 125.7008)">
							<stop  offset="0" style="stop-color:#E04445"/>
							<stop  offset="1" style="stop-color:#801624"/>
						</linearGradient>
						<rect x="83.7" y="36.5" class="st3" width="2.5" height="2.5"/>
						
							<linearGradient id="SVGID_4_" gradientUnits="userSpaceOnUse" x1="77.4" y1="87.9508" x2="82.4581" y2="87.9508" gradientTransform="matrix(1 0 0 -1 0 125.7008)">
							<stop  offset="0" style="stop-color:#E04445"/>
							<stop  offset="1" style="stop-color:#801624"/>
						</linearGradient>
						<rect x="77.4" y="36.5" class="st4" width="5.1" height="2.5"/>
						
							<linearGradient id="SVGID_5_" gradientUnits="userSpaceOnUse" x1="43.2103" y1="67.9508" x2="45.7391" y2="67.9508" gradientTransform="matrix(1 0 0 -1 0 125.7008)">
							<stop  offset="0" style="stop-color:#E04445"/>
							<stop  offset="1" style="stop-color:#801624"/>
						</linearGradient>
						<rect x="43.2" y="56.5" class="st5" width="2.5" height="2.5"/>
						
							<linearGradient id="SVGID_6_" gradientUnits="userSpaceOnUse" x1="36.9383" y1="67.9508" x2="41.996" y2="67.9508" gradientTransform="matrix(1 0 0 -1 0 125.7008)">
							<stop  offset="0" style="stop-color:#E04445"/>
							<stop  offset="1" style="stop-color:#801624"/>
						</linearGradient>
						<rect x="36.9" y="56.5" class="st6" width="5.1" height="2.5"/>
						
							<linearGradient id="SVGID_7_" gradientUnits="userSpaceOnUse" x1="74.7718" y1="53.0008" x2="77.4017" y2="53.0008" gradientTransform="matrix(1 0 0 -1 0 125.7008)">
							<stop  offset="0" style="stop-color:#E04445"/>
							<stop  offset="1" style="stop-color:#801624"/>
						</linearGradient>
						<path class="st7" d="M76.1,71.4c0.7,0,1.3,0.6,1.3,1.3c0,0.7-0.6,1.3-1.3,1.3c-0.7,0-1.3-0.6-1.3-1.3
							C74.8,71.9,75.4,71.4,76.1,71.4z"/>
						
							<linearGradient id="SVGID_8_" gradientUnits="userSpaceOnUse" x1="81.1449" y1="41.7008" x2="83.7748" y2="41.7008" gradientTransform="matrix(1 0 0 -1 0 125.7008)">
							<stop  offset="0" style="stop-color:#E04445"/>
							<stop  offset="1" style="stop-color:#801624"/>
						</linearGradient>
						<path class="st8" d="M82.5,82.7c0.7,0,1.3,0.6,1.3,1.3c0,0.7-0.6,1.3-1.3,1.3c-0.7,0-1.3-0.6-1.3-1.3
							C81.1,83.2,81.7,82.7,82.5,82.7z"/>
						
							<linearGradient id="SVGID_9_" gradientUnits="userSpaceOnUse" x1="87.4164" y1="49.2008" x2="90.0467" y2="49.2008" gradientTransform="matrix(1 0 0 -1 0 125.7008)">
							<stop  offset="0" style="stop-color:#E04445"/>
							<stop  offset="1" style="stop-color:#801624"/>
						</linearGradient>
						<path class="st9" d="M88.7,75.2c0.7,0,1.3,0.6,1.3,1.3c0,0.7-0.6,1.3-1.3,1.3c-0.7,0-1.3-0.6-1.3-1.3
							C87.4,75.7,88,75.2,88.7,75.2z"/>
						
							<linearGradient id="SVGID_10_" gradientUnits="userSpaceOnUse" x1="84.8876" y1="80.5008" x2="87.5179" y2="80.5008" gradientTransform="matrix(1 0 0 -1 0 125.7008)">
							<stop  offset="0" style="stop-color:#E04445"/>
							<stop  offset="1" style="stop-color:#801624"/>
						</linearGradient>
						<path class="st10" d="M86.2,43.9c0.7,0,1.3,0.6,1.3,1.3s-0.6,1.3-1.3,1.3c-0.7,0-1.3-0.6-1.3-1.3
							C84.9,44.4,85.5,43.9,86.2,43.9z"/>
						
							<linearGradient id="SVGID_11_" gradientUnits="userSpaceOnUse" x1="74.7718" y1="66.7008" x2="77.4017" y2="66.7008" gradientTransform="matrix(1 0 0 -1 0 125.7008)">
							<stop  offset="0" style="stop-color:#E04445"/>
							<stop  offset="1" style="stop-color:#801624"/>
						</linearGradient>
						<path class="st11" d="M76.1,57.7c0.7,0,1.3,0.6,1.3,1.3s-0.6,1.3-1.3,1.3c-0.7,0-1.3-0.6-1.3-1.3
							C74.8,58.2,75.4,57.7,76.1,57.7z"/>
						
							<linearGradient id="SVGID_12_" gradientUnits="userSpaceOnUse" x1="46.953" y1="74.2008" x2="49.5834" y2="74.2008" gradientTransform="matrix(1 0 0 -1 0 125.7008)">
							<stop  offset="0" style="stop-color:#E04445"/>
							<stop  offset="1" style="stop-color:#801624"/>
						</linearGradient>
						<path class="st12" d="M48.3,50.2c0.7,0,1.3,0.6,1.3,1.3s-0.6,1.3-1.3,1.3S47,52.2,47,51.5C47,50.7,47.5,50.2,48.3,50.2z"/>
						
							<linearGradient id="SVGID_13_" gradientUnits="userSpaceOnUse" x1="36.8373" y1="61.7008" x2="39.4671" y2="61.7008" gradientTransform="matrix(1 0 0 -1 0 125.7008)">
							<stop  offset="0" style="stop-color:#E04445"/>
							<stop  offset="1" style="stop-color:#801624"/>
						</linearGradient>
						<ellipse class="st13" cx="38.2" cy="64" rx="1.3" ry="1.3"/>
						
							<linearGradient id="SVGID_14_" gradientUnits="userSpaceOnUse" x1="49.4818" y1="88.0008" x2="52.1122" y2="88.0008" gradientTransform="matrix(1 0 0 -1 0 125.7008)">
							<stop  offset="0" style="stop-color:#E04445"/>
							<stop  offset="1" style="stop-color:#801624"/>
						</linearGradient>
						<path class="st14" d="M50.8,36.4c0.7,0,1.3,0.6,1.3,1.3S51.5,39,50.8,39s-1.3-0.6-1.3-1.3C49.5,36.9,50.1,36.4,50.8,36.4z"/>
						
							<linearGradient id="SVGID_15_" gradientUnits="userSpaceOnUse" x1="48.2679" y1="34.2008" x2="50.8983" y2="34.2008" gradientTransform="matrix(1 0 0 -1 0 125.7008)">
							<stop  offset="0" style="stop-color:#E04445"/>
							<stop  offset="1" style="stop-color:#801624"/>
						</linearGradient>
						<path class="st15" d="M49.6,90.2c0.7,0,1.3,0.6,1.3,1.3c0,0.7-0.6,1.3-1.3,1.3s-1.3-0.6-1.3-1.3
							C48.3,90.7,48.9,90.2,49.6,90.2z"/>
						
							<linearGradient id="SVGID_16_" gradientUnits="userSpaceOnUse" x1="44.4242" y1="34.2008" x2="47.0541" y2="34.2008" gradientTransform="matrix(1 0 0 -1 0 125.7008)">
							<stop  offset="0" style="stop-color:#E04445"/>
							<stop  offset="1" style="stop-color:#801624"/>
						</linearGradient>
						<path class="st16" d="M45.7,90.2c0.7,0,1.3,0.6,1.3,1.3c0,0.7-0.6,1.3-1.3,1.3s-1.3-0.6-1.3-1.3C44.4,90.7,45,90.2,45.7,90.2z
							"/>
						
							<linearGradient id="SVGID_17_" gradientUnits="userSpaceOnUse" x1="82.3588" y1="70.5008" x2="90.0467" y2="70.5008" gradientTransform="matrix(1 0 0 -1 0 125.7008)">
							<stop  offset="0" style="stop-color:#E04445"/>
							<stop  offset="1" style="stop-color:#801624"/>
						</linearGradient>
						<path class="st17" d="M86.2,59c2.1,0,3.8-1.7,3.8-3.8s-1.7-3.8-3.8-3.8c-2.1,0-3.8,1.7-3.8,3.8C82.4,57.3,84.1,59,86.2,59z
							 M86.2,54c0.7,0,1.3,0.6,1.3,1.3s-0.6,1.3-1.3,1.3c-0.7,0-1.3-0.6-1.3-1.3C84.9,54.6,85.5,54,86.2,54z"/>
						
							<linearGradient id="SVGID_18_" gradientUnits="userSpaceOnUse" x1="35.6234" y1="42.4008" x2="41.8997" y2="42.4008" gradientTransform="matrix(1 0 0 -1 0 125.7008)">
							<stop  offset="0" style="stop-color:#E04445"/>
							<stop  offset="1" style="stop-color:#801624"/>
						</linearGradient>
						<path class="st18" d="M38.8,80.2c-1.7,0-3.1,1.4-3.1,3.1s1.4,3.1,3.1,3.1c1.7,0,3.1-1.4,3.1-3.1C42,81.6,40.5,80.2,38.8,80.2z
							 M38.8,84c-0.3,0-0.6-0.3-0.6-0.6c0-0.3,0.3-0.6,0.6-0.6s0.6,0.3,0.6,0.6C39.5,83.7,39.2,84,38.8,84z"/>
						
							<linearGradient id="SVGID_19_" gradientUnits="userSpaceOnUse" x1="39.3661" y1="82.4008" x2="48.2679" y2="82.4008" gradientTransform="matrix(1 0 0 -1 0 125.7008)">
							<stop  offset="0" style="stop-color:#E04445"/>
							<stop  offset="1" style="stop-color:#801624"/>
						</linearGradient>
						<path class="st19" d="M43.8,47.7c2.4,0,4.5-2,4.5-4.4s-2-4.4-4.5-4.4c-2.4,0-4.5,2-4.5,4.4C39.4,45.7,41.4,47.7,43.8,47.7z
							 M43.8,41.5c1,0,1.9,0.8,1.9,1.9c0,1.1-0.8,1.9-1.9,1.9c-1.1,0-1.9-0.8-1.9-1.9C41.9,42.3,42.8,41.5,43.8,41.5z"/>
					</g>
				</g>
			</g>
		</g>
	</g>
</g>
<g>
	
		<linearGradient id="SVGID_20_" gradientUnits="userSpaceOnUse" x1="3.5" y1="730.7008" x2="123" y2="730.7008" gradientTransform="matrix(1 0 0 1 0 -667.7008)">
		<stop  offset="0" style="stop-color:#E04445"/>
		<stop  offset="1" style="stop-color:#801624"/>
	</linearGradient>
	<path class="st20" d="M63.9,7.9C94.3,7.9,119,32.6,119,63l0,0c0,30.4-24.7,55.1-55.1,55.1h-1.3C32.2,118.1,7.5,93.4,7.5,63l0,0
		c0-30.4,24.7-55.1,55.1-55.1L63.9,7.9 M63.9,3.9h-1.3C30,3.9,3.5,30.4,3.5,63s26.5,59.1,59.1,59.1h1.3c32.6,0,59.1-26.5,59.1-59.1
		S96.5,3.9,63.9,3.9L63.9,3.9z"/>
</g>
</svg>
