<svg width="50" height="50" viewBox="0 0 50 50" fill="none" xmlns="http://www.w3.org/2000/svg">
<path d="M25 4.69897C36.2 4.69897 45.2999 13.799 45.2999 24.999C45.2999 36.199 36.2 45.299 25 45.299C13.8 45.299 4.69995 36.199 4.69995 24.999C4.69995 13.799 13.8 4.69897 25 4.69897ZM25 2.69897C12.7 2.69897 2.69995 12.699 2.69995 24.999C2.69995 37.299 12.7 47.299 25 47.299C37.2999 47.299 47.2999 37.299 47.2999 24.999C47.2999 12.699 37.2999 2.69897 25 2.69897Z" fill="url(#paint0_linear_111_486)"/>
<path d="M29.8999 31.4989C29.7999 31.4989 29.6999 31.4989 29.5999 31.4989C29.1999 31.3989 28.7999 31.1989 28.4999 30.7989C28.2999 30.3989 28.1999 29.9989 28.2999 29.4989C28.4999 28.5989 29.3999 27.9989 30.2999 28.1989C30.6999 28.2989 31.0999 28.4989 31.3999 28.8989C31.5999 29.2989 31.6999 29.6989 31.5999 30.1989C31.4999 30.5989 31.2999 30.9989 30.8999 31.2989C30.4999 31.3989 30.1999 31.4989 29.8999 31.4989ZM29.8999 29.0989C29.5999 29.0989 29.2999 29.2989 29.1999 29.6989C29.1999 29.8989 29.1999 30.0989 29.2999 30.1989C29.3999 30.3989 29.5999 30.4989 29.7999 30.4989C29.9999 30.4989 30.1999 30.4989 30.2999 30.3989C30.4999 30.2989 30.5999 30.0989 30.5999 29.8989C30.5999 29.6989 30.5999 29.4989 30.4999 29.3989C30.3999 29.1989 30.1999 29.0989 29.9999 29.0989H29.8999Z" fill="#064466"/>
<path d="M30.9999 12.4989C30.6999 12.0989 30.1999 11.8989 29.6999 11.9989C27.9999 12.4989 26.2999 13.2989 24.8999 14.4989C23.8999 15.2989 22.9999 16.1989 22.2999 17.1989C21.6999 17.9989 21.0999 18.8989 20.5999 19.7989C19.5999 21.7989 19.1999 24.0989 19.1999 26.3989C19.1999 27.3989 19.2999 28.4989 19.4999 29.4989C19.5999 30.1989 19.8999 30.8989 20.1999 31.5989H15.7999C15.0999 31.5989 14.4999 32.2989 14.6999 32.9989C14.7999 33.4989 15.2999 33.8989 15.8999 33.8989H22.6999C23.3999 33.8989 23.9999 33.2989 23.8999 32.5989C23.7999 31.9989 23.1999 31.6989 22.7999 31.2989C22.3999 30.6989 22.0999 30.0989 21.9999 29.3989C21.5999 27.4989 21.7999 25.3989 22.1999 23.5989C22.4999 22.3989 22.8999 21.1989 23.3999 20.0989C23.6999 19.5989 23.9999 18.9989 24.2999 18.4989C25.1999 17.3989 26.7999 15.6989 29.4999 14.6989C30.2999 16.3989 31.7999 20.5989 30.4999 26.0989C29.8999 25.8989 29.3999 25.4989 28.9999 24.9989C27.7999 23.3989 27.8999 20.8989 27.9999 19.6989C27.9999 19.3989 27.7999 19.0989 27.4999 18.9989C27.0999 18.8989 26.7999 19.1989 26.6999 19.5989C26.5999 20.8989 26.4999 23.8989 27.9999 25.7989C28.7999 26.8989 30.2999 27.6989 31.6999 27.5989C32.1999 27.5989 32.5999 27.1989 32.6999 26.6989C34.6999 18.3989 31.0999 12.6989 30.9999 12.4989Z" fill="#03BA85"/>
<path d="M16.1999 35.0988C14.8999 35.0988 13.7999 33.9988 13.7999 32.6988C13.7999 31.3988 14.8999 30.2988 16.1999 30.2988C17.4999 30.2988 18.5999 31.3988 18.5999 32.6988C18.5999 33.9988 17.4999 35.0988 16.1999 35.0988ZM16.1999 31.7988C15.7999 31.7988 15.3999 32.1988 15.3999 32.5988C15.3999 32.9988 15.7999 33.3988 16.1999 33.3988C16.5999 33.3988 16.9999 32.9988 16.9999 32.5988C16.9999 32.1988 16.5999 31.7988 16.1999 31.7988Z" fill="#064466"/>
<defs>
<linearGradient id="paint0_linear_111_486" x1="2.71205" y1="24.999" x2="47.2879" y2="24.999" gradientUnits="userSpaceOnUse">
<stop offset="0.2203" stop-color="#03BA85"/>
<stop offset="1" stop-color="#064466"/>
</linearGradient>
</defs>
</svg>
